<svg version="1.2" xmlns="http://www.w3.org/2000/svg" viewBox="0 0 595 842" width="595" height="842">
	<title>Стеклодувная лого</title>
	<style>
		.s0 { fill: #753c0d } 
	</style>
	<g id="Слой 1">
		<g id="&lt;Group&gt;">
			<path id="&lt;Compound Path&gt;" fill-rule="evenodd" class="s0" d="m566.6 315.9l4.4 25.5-64.6 11.3-1.5-8.6 32.6-5.6q-0.5-2.9-0.3-5.3-3.1-3-10.1-1.4l-23.4 5.5-1.5-8.5 23.5-5.4 1.9-0.4q8.1-1.4 13.4 2.4 5.6-6 19.5-8.5zm-8.3 10.3q-6.4 1.1-9.6 4.2-3.1 3.1-2.5 6.6l14.7-2.5-1.5-8.5zm-32.6-37.2q10-2.5 15.7 1.3 5.8 3.7 7.3 11.4l5.8-1.1-3.3-15.9 8.6-1.8 5.1 24.4-64.3 13.3-1.7-8.5 20.9-4.3-1.7-8-20.7 5.2-1.7-8.4zm1 8.5l1.7 8.4 11.7-2.4q-0.8-4.3-3.9-5.9-3-1.7-8.8-0.2zm23-50.3l2.3 8.4-21.1 5.8q0.2 1.3 0.5 3.7l22.5-2.7 3 10.8-8.5 2.3-1.1-4.1-17.1 1.7q-3.3 7.5-14.1 9.8l-23.2 5.1-2.3-8.4 23.2-4.9 1.5-0.4q4.6-1.2 6.2-3.8 1.7-2.6 0.8-6.7l-33.5 9.2-2.3-8.3zm-27.6-31.2q6.6-2.8 11.6-1.2 5.1 1.6 7.5 7.8 2.3 5.9-0.3 10.5-2.6 4.7-9.3 7.1l-3.4 1.2-3.2-8 2.2-0.9q3.6-1.4 5.1-3 1.5-1.6 0.7-3.7-0.9-2.3-3.1-2.5-2.2-0.2-5.8 1.2l-32.4 13.6q-2.8 1.3-3.9 2.6-1.1 1.2-0.4 2.9 0.6 1.7 2.3 1.9 1.6 0.1 4.6-0.8l12.5-4.5 3.1 8.1-13.6 4.8q-6 2-10.5 0.6-4.5-1.4-6.6-6.8-2.1-5.5 0.2-9.6 2.3-4.2 8.1-6.6zm-1.3-38.6l11.3 23.4-10 4.7q-23.8 11.5-31.3-4.1l-25.3 12.2-3.8-7.8zm-22 20.2q1.5 3.2 5.9 3.9 4.3 0.7 10.2-2.1l5.5-2.6-3.8-7.8zm-6.6-46.1q5.5-3.2 10-2 4.5 1.2 7.3 6l6.3 10.8-16 9.4-4.4-7.5 8.4-4.9-1.6-2.9q-2.1-3.5-6.1-1.2l-8.9 5.2 5.7 9.8-7.6 4.4-5.7-9.7-21 12.2 3.7 6.2 11-6.4 4.3 7.5-18.6 10.8-12.3-21.2zm-15.2-44l19.8 28-15.1 10.7-5-7 8-5.6-2.5-3.5-46.4 32.8-5-7.1 46.4-32.8-2.4-3.4-8 5.6-4.9-7zm-37.5-19.2q5-5.1 10.3-5.5 5.3-0.4 9.8 4.4 4.4 4.5 3.8 9.8-0.7 5.3-5.9 10.1l-2.7 2.5-6-6.3 1.7-1.6q2.8-2.7 3.6-4.8 0.7-2-0.8-3.7-1.7-1.7-3.8-1.1-2.1 0.7-4.9 3.3l-24.8 24.9q-2.2 2.2-2.7 3.8-0.5 1.6 0.8 2.9 1.2 1.3 2.8 0.8 1.5-0.4 3.9-2.5l9.9-8.8 6 6.3-10.8 9.6q-4.9 4.1-9.5 4.5-4.7 0.4-8.7-3.8-4-4.2-3.5-8.9 0.6-4.7 5-9.2zm-43.8-10.1q5.8-8.6 12.6-9.6 6.8-1 13.1 3.6l3.5-4.6-13-9.7 5.2-7.1 20 14.8-39 52.8-7-5.2 12.7-17.1-6.5-4.9-11.9 17.7-7-5.1zm6.4 5.7l6.9 5.1 7.2-9.6q-3.5-2.6-6.9-1.8-3.4 0.8-6.7 5.7zm-56.1-31.2q3.9-9.5 10.4-11.9 6.4-2.4 13.4 0.9l2.6-5.3-14.7-6.8 3.7-8 22.5 10.5-7.4 16q4.3-1.3 8.9 0.8l6.2-13.2 7.9 3.6-27.6 59.5-7.9-3.6 17.8-38.3q-3.9-1.8-6.9-0.3-3.1 1.5-5.6 6.9l-13 28.1-7.9-3.7 17.8-38.2q-8.1-3.8-12.5 6.6l-11.7 28.6-7.9-3.6zm-58.2-41.6l25.9 1-2.7 65.6-8.7-0.4 1.4-33q-2.8-0.2-5.2-0.9-3.5 2.4-3.5 9.6l0.4 24-8.6-0.3-0.3-24.1v-1.9q0.4-8.3 5.1-12.6-4.6-6.8-4-20.9zm8.2 10.3q-0.3 6.5 2.1 10.2 2.4 3.8 5.9 3.9l0.6-14.9-8.5-0.4zm-49 31.8q-2.5-10 1.2-15.7 3.8-5.8 11.4-7.4l-1.1-5.7-15.8 3.3-1.8-8.6 24.3-5.1 13.4 64.2-8.5 1.8-4.4-20.9-7.9 1.6 5.2 20.7-8.4 1.8zm8.5-1l8.4-1.7-2.4-11.8q-4.3 0.9-5.9 3.9-1.7 3.1-0.2 8.9zm-60-14.2l7.9-3.6 10 21.5 7.7-3.6-10-21.5 7.8-3.7 27.7 59.5-7.9 3.7-13.9-30-7.7 3.5 13.9 30-7.9 3.7zm-38.9 25.9l20.9-15.4 3.6 4.9q8.4 11.3 8.3 19.6 6.4 0.9 11.3 7.5l1.1 1.7 13.3 20-19.5 14.4zm21.1 13.9q2.8-2.1 2.7-6.5-0.1-4.4-4-9.7l-0.7-0.9-6.9 5.1zm25.7 22.2l-8.4-12.7q-4-6-8.3-6-1.5 1.9-3.8 3.6l14.5 19.5zm-73.7-9.4l23.8 17.2 1-1-18.5-22.8 8-8.4 6.4 6-2.8 3 21.2 27.2q3.1-1.7 6.6-1.1 3.4 0.6 6.6 3.6 4.1 3.9 4.3 8.2 0.2 4.3-3.2 7.8l-4 4.2q-3.4 3.6-7.7 3.6-4.3 0-8.3-3.9-4.1-3.8-4.3-8.1-0.2-4.3 3.2-7.9l0.9-0.9-2.9-3.6-4.9 5.2-31.5-21.9zm14.9 71.4l-18-12.8q-8.4-6-9.3-12.8-0.9-6.9 3.9-13l-4.5-3.7-10 12.8-6.9-5.4 15.2-19.6 44.9 34.9 3.1-4.1 16.1 13.8-5.4 7-9.3-8.2-11 14.1 10.2 7-5.2 6.8-17.5-12zm5.2-6.8l4.7-6-26.3-20.5q-5.6 7.3 3.6 13.7zm18.7-26.8q2.5 2.4 5.4-0.5l2.3-2.5q2.8-2.9 0.3-5.3-2.6-2.4-5.4 0.5l-2.3 2.5q-2.8 2.9-0.3 5.3zm-78 41.7q-6.3-3.5-8.1-8.5-1.9-4.9 1.5-10.7 3.3-5.7 8.6-6.6 5.2-0.8 11.3 2.9l31.9 19.9q5.3 3.4 7 7.8 1.7 4.4-1.3 9.5-3 5.2-7.7 6-4.7 0.7-10.2-2.3zm36.2 10.1q2.9 1.5 4.5 1.5 1.7 0 2.6-1.7 1-1.6 0.1-3-0.8-1.4-3.5-3.2l-29.8-18.4q-3.5-2-5.6-2.1-2.2-0.1-3.5 2.1-1.2 2.1-0.1 4 1.2 1.9 4.6 3.9zm-34.2 32.2q-9.5-4.1-11.8-10.6-2.2-6.5 1.1-13.5l-5.2-2.6-7 14.6-7.9-3.8 10.7-22.4 59.1 28.4-3.7 7.8-38-18.3q-4 8.3 6.4 12.7l28.5 12.1-3.8 7.8zm-45.1 18.9l3.2-8.1 20.4 8q0.5-1.2 1.8-3.3l-19.6-11.3 4-10.4 8.2 3.2-1.6 4 14.8 8.8q7.1-4 17.2 0.6l21.5 9.9-3.2 8.1-21.5-10-1.4-0.6q-4.4-1.8-7.3-0.6-2.9 1.1-4.6 4.8l32.3 12.7-3.1 8.1zm1.2 38.6q-6.1-1.9-8.2-6-2.1-4.2-0.5-9.5l3.8-11.9 17.7 5.5-2.6 8.3-9.3-2.9-1 3.1q-1.2 3.9 3.2 5.3l9.8 3 3.4-10.7 8.4 2.6-3.4 10.8 23.2 7.2 2.2-6.8-12.2-3.8 2.6-8.3 20.5 6.4-7.3 23.4zm-22.8 41.9l7-33.6 18.1 3.7-1.7 8.4-9.5-1.9-0.9 4.1 55.6 11.5-1.7 8.5-55.7-11.5-0.8 4.2 9.5 2-1.7 8.4zm9.2 35.3q-7.1-0.8-10.7-4.6-3.6-3.9-2.6-10.5 0.8-6.2 5.4-9 4.5-2.8 11.5-1.6l3.7 0.6-1.3 8.6-2.3-0.4q-3.8-0.5-5.9 0.2-2.1 0.6-2.4 2.9-0.4 2.4 1.4 3.6 1.9 1.3 5.7 1.8l34.8 4.1q3.2 0.3 4.7-0.3 1.6-0.6 1.8-2.4 0.3-1.7-1.1-2.7-1.3-1-4.4-1.6l-13-2.2 1.2-8.6 14.2 2.5q6.3 1.2 9.5 4.7 3.1 3.4 2.3 9.1-0.8 5.8-4.8 8.3-4 2.5-10.3 1.8z"/>
			<path id="&lt;Compound Path&gt;" fill-rule="evenodd" class="s0" d="m280.1 701.2c1.5 2.4 0.8 5 0.9 7.8 0 0-2.7 9.7-2.8 9.9-0.5 1.1-1.3 1.6-2.4 2.2-2.7 1.4-2.2 2.8-4.8 2.8-6.3 0-4-1.2-6.3-2.5-2.9-1.7-4.3-4.4-4.8-4.8-0.1-0.4-3.9-5.8-3.9-6.1 0-0.4-3.8-6.9-4.1-7-0.7-0.5-1.8-2.1-1.8-2.2-2-1.7-2.3-4.7-3.1-5.9-0.9-1.2-1.5-3.9-1.7-4.3-1.6-2.2-1.1-7.9-1.1-10.8 0-1.8 0.7-3.8 0.5-5.7-0.6-0.2-1-0.6-1.2-1.2-3.5 0 3.8-2.8-0.1-6.7-2-2-1.9-8.7-3.2-11.8-1.8-4.7 1.1-6.7-1.5-9.7-0.8-1 1.3-9.1-0.2-10.3-0.8-0.6-0.3-5.7-0.3-7.1-3.4-0.8-2.7 2.6-2.7 5.3 0 0 0.6 8.1 0.6 8.2 1.5 2 0 6.8 0 9.9 0 3.8-0.5 2.2 1.5 5.2 0.6 1-0.2 2.4-0.6 4-2.3-0.6-1.6 1-2.4 1h-0.1c0.4 0.7 0.9 1.3 1.8 2 0.4 0.4 1.8 3 1.8 3.9 0 1.1-0.3 3 0.3 3.8 0.1 0.1 0 7.8-0.3 8.1-1.8 1.8-1.2 1-2.9 2.4-7.1 6.2-20 22.7-21.4 23.1-0.3 0.1-1.5 0.8-2.5 1.1-3.1 0.9-0.7 1.3-3.3 2.7-1.6 0.8-2 1.3-4 1.6-1 0.1-2.3 1.1-3.9 1.3-1.4 0.2-4.4 0.7-5.5-0.4-2.1-2-3 0.5-4.3-3.2-1.9-5.5-2.7-9.7 2.5-14.2 6.6-7.5 10-14.3 14.1-21.5q-1.5-3.1 2.1-3.2 0.9-0.6 1.1-1.1-1.5-2.1 1.2-3.5 1.1-1.8 2-4.9c-1.3 0.3-3 0.5-2.5-0.5 0.5-1.3 0-2.5 1.2-3.6 0.5-0.4 0.6-2.3-0.2-2.6-0.4-0.1-1.7-1.4-1.7-2.2 0-1.6-0.3-1.8-0.3-3.2 0.1-3.4-4-1-2-4.6 1.1-1.8 0.6-3.2 1-5 0.3-1.3-1.2-3.1-2-4-2.3-2.3-0.2-3.6-1.7-4.8-1-0.7-1.5-4.7-2.3-5.3-0.1 0-0.2-0.5-0.4-0.8-0.7-3-4.3-5.1-3.5-8.4 0.2-0.9 0.3-2.9-0.4-3.4-1.2-0.9-2.2-3.8-2.2-5.5 0-3-4-2-2.5-6.3 1.1-3.1-2.8-5.5-2.2-7.8 0.3-1-0.5-2.4-0.8-3.6 0.2-1.5-0.8-4.8-1-7.3-0.1-1.7-0.9-4.9-0.9-5.7-1.5-1.5-2.3-7-0.8-8.9 0.7-0.8 0.4-2 0.4-3 1.3 0.2 4.2 0.9 5.1 0.9 1 0 9.9 0.6 10.4 0.4 1.9-0.9-5.9-1.7-6.3-1.8-1.4-0.5-7.3-1.9-8.6-1.9-2.1 0-3.2-1.3-3.2-3.4 0-0.8 0.4-2.8-0.5-3.2-0.5-0.2-2.2-1.6-2.2-2 0.3-4.2-1.3-5.5-1.4-8.2-0.1-2-1.2-1.5 0.4-4.1 0.5-0.8 0.4-2.4-0.3-2.9-2.4-1.5-2.1-0.2-2.2-3.2-0.1-1.6 9.3-7-1.1-8.9-1.3-0.2-2-4.2-2-5.4-1.6-3.4-0.6-8.8-1.6-10.1-0.3-0.4-0.5-4.4-0.5-5.2 0-4.3-1.3-2-1.5-4.4-0.2-3.8 0.1-2.7-5.8-2.7-7.7 0-8.8 1-6.1-7.2 0.8-2.5 0.7-2 0.7-4.7 0-3.5 0.2-4.5 1.2-8 5.2-16.5 12.4-76.1 17.1-94.3 0.1-1.4 1.9-2 1-2.9-0.5-0.6 0.3-4-1.5-6.8-0.5-0.7 0.6-0.3-1.5-1-0.7-0.3-1.8-0.4-2.3-1.1-0.2-0.2-0.9-0.2-2.1-2.1-0.2-0.2-2.5-2.3-2.9-2.6-1.5-1.3-1.3-2.1-2.8-3.7-0.6-0.7-1.9-5-1.9-6q0-0.7 0-1.4c0.1-2.4 0-22.3 0.6-22.9 0.8-0.6-0.6-12.8 1.2-16.3 0.2-0.3 0.2-3.7 0.6-4.7 0.6-1.4-0.8-0.2-2-0.2-2.1 0.1-4 1.2-5.4 1.3-3.6 0.2-7.9 2.7-9.9 2.6-0.6 0-1.3 0.6-2.9 0.2-1.2-0.4-2.5 0.6-4.2-1.7-1.8-2.3-2.9-3.2-3.3-6.4-0.1-0.6-0.3-0.3-0.3-2 0-2.3-1.2-1-1.2-4.7-0.7-1.5-0.6-5.3 0.1-6.9 0.7-1.5 0.3-6.3 1.2-7.9 0.5-0.8 2.5-9.1 2.5-10.2 0-5.8 2-4.9 3.5-9.3 0.7-2.1 2.6-4.4 3.6-6.4 0.6-1 3.5-5.1 4.4-5.3 0.1-0.3 7.2-6.8 7.9-7.5 0.4-0.3 1.9-2.4 3.1-3.2 1-0.7 4.7-4.2 5.1-5.3 0.1-0.3 1.5-2 2-2.3 2.7-1.6 3.7-4.9 5.8-6.8 0.2-0.2 1.5-2.2 2.1-2.8 0.8-0.9 3-4.8 3.4-5l0.3-0.3c0.6-1.6 2.1-2.4 2.7-3.7 0.3-0.7 0.5-0.4 1.1-1.7 0.4-0.9 1.1-1.1 1.4-2.7 0.1-0.3 1.5-3.5 1.6-4-0.2-1.5 3.7-5 3.9-6.3 0.7-0.3 3.9-6.2 4-5.4 0.3-0.8 0.3-1.6-2.2-5.6-0.1-0.2-2.4-0.8-2.4-0.8-0.3-0.3-0.5-2.3-1-2.8-1-0.9-0.6-2.3-1-2.7-1.3-1.1-0.6-2.6-1.5-4.5 0-5.6-1.1-1.5-1.5-7.2 0 0 1-3.9 1-4.3 0-1.9 3.3-6 4.3-7.8 6.4-6.3 18.4-10.1 22.5-10.7 7.5-1.1 17.6 1.3 21.8 5 3.3 3 7.5 8.2 9.8 13.3 1.9 4.1 5.4 18.3 4.1 21.7-1 2.7 1.1 3.6 1.2 7.4-0.5 4.8 3 13.1 4.8 15.2 0 0.7 2.5 1.1 3 0.7 0.5-0.2 4.7-0.3 5.4-0.2 0.3 0 0.7-0.2 1.5-0.2 1 0 2.9-0.3 3.8-0.5 0.8-0.2 3.1-0.2 3.6 0.3 0.7 0.5 2.1 1.4 2.9 1.3 0.1 0 3 0.7 3 0.7 2.9 2.1 11.9 2 16 6.7 1 1.2 1.3 0.4 2.7 2.8 0.2 0.4 0.9 1.7 1 2 0.4 1.6 0.8 1.8 1.7 3.3 1 1.7 1.3 2 1.4 4 0.1 0.6 0.2 1.2 0 1.9 0 0 0 0.5 0-0.1 0.2 0.7-0.2 3.3-0.5 3.9-0.1 0.3-0.3 3.9-0.3 4.5 0 0.8 0.1 1.1-0.3 1.7-0.1 0.3-0.4 1.2 0 1.2 2.4 0 0.7-0.2 2.5-2 8.1-8.3 15.7-15.7 23.7-19.6 13.1-6.6 29.8-7 44-4.5 27.7 4.8 58.4 22.4 75.8 39.2 10.6 10.2 19.4 22.2 23.6 34.7 5.9 17.7 0.2 37.1-9.4 52.5-22.8 36.9-69 44.6-104.7 19.9-22.5-17.2-50.4-45.4-60.3-71.8q-4.2-12.5-5.6-4.3-4.1 11-5.1 26 0.4 10.2 2.6 24 2.5 16.8 3.3 23.4 2 7.2 1.2 10.5-2.1 7-12.7 4.4-1.5-0.6-0.8 2.1 2.3 18.2 2.9 31.9 0 10.3-0.3 19.1 1.8 24.8 3.6 31.5 2.3 11.4 6.1 17.8-3.4 3.9-6.9 6.9-0.8 15.8-1.2 24.2-1.2 13.1-1.3 20.5 0.5 8.4-1.7 12.1c0 0-1.2 1.4-1.4 2.4-0.3 1.7-0.9 0.8-0.9 3.9 0 0.6-0.5 3.8 0.3 3.7 3.7 5.9-3.2 2-5.1 8.6 0 0.2 0.5 10 0.6 10 1.6 3.1 2.1 1 0.3 6-0.1 0.4-4.2 45-4.2 46.3 0 3-0.5 4.8 0.8 7.2 1.3 2.3-3.1 3.4-0.4 8.7 1.3 2.7-5.7 4.3-3.1 11.5 2.2 6.2 0 4.8-1.8 9.6-1.3 3.3-0.5 5.2-0.5 8.3-0.1 0-0.4-0.1-0.8-0.2 0.5 1.4 0.8 3.8 1.7 5.1 0.2 0.3 3 7.4 3.2 7.9 0.3 1.7 3.1 5.3 3.7 7.4 0.2 1.1 3.8 7.9 4.6 8.9zm18.3-441.1c-1.9 5.1 0 6.1-1.6 10.4-0.5 1.1-0.9 7.5-1.4 7.2-1.1-0.6-1.2-7.6-0.9-8.9 0.6-2.1 1.5-9.8 3.9-9.6 0.8 0.1 0.1 0.5 0 0.9zm-41.6 428.1c1-0.9 6.7-1.4 8.4-1.4 0.6 0 2.5-0.3 2.5 0.3 0.1 0.5 1.5 0.7-1.1 0.7-0.7 0-3.4 0.4-4 0.7-0.7 0.3-2.1 0-2.9 0.5-0.3 0.2-3.2 0.8-3.4 0.5-0.5-1 0.3-1.2 0.5-1.3zm-5.6-5.4c0.1-0.1 2.8-1.6 3.2-1.7 0.9-0.3 1.9-0.8 2.7-1 1.5-0.2 1.4-0.4 3.1-0.4 1 0.1 2.7-0.4 3.5 0.7 0.2 0.3 2.1 1 0.4 1 0 0-1.2-0.6-1.8-0.5-1.5 0-1.7-0.1-3.4 0.2-0.5 0.1-1.1 0-1.6 0.3-0.3 0.2-1.7 0.1-2.8 1-0.4 0.3-3.8 1.8-3.3 0.4zm-38.7-11.8c0.3-0.9 2.3-0.8 3.1-1 0.3 0 1.7-0.2 2.1-0.2 1.5 0 5.5-0.2 6.5 0.7 0.3 0.2 4.8 1.3 2.9 2.4-0.5 0.2-1.7-0.9-3-1.1-1.9-0.3-1.2-0.4-3.3-0.4-1.4 0-7.7-0.3-8.5 0-0.4 0.2 0.2-0.4 0.2-0.4zm-2.5 4c0.6 0.6 1.6 0.4 2.7 0.4 1.2 0 1.3-0.2 2.7-0.2 3.8 0 3.8-0.3 7.3 1 0.8 0.4 1.2 0.3 1.9 1 1.5 1.4 0 1.4-0.8 0.7-0.7-0.7-1.9-0.5-2.8-1-0.9-0.5-7.3-0.5-8.9-0.5-0.5 0-1.7-0.4-2.3-0.2-0.1 0.4 0.1-1 0.1-1.1zm154.4-401.3c-0.4 0.7-0.8 1.8-1.1 2.6-0.1 0.5-2.5 4.7-2.7 4.9-0.6 0.3-2.1 2.3-2.3 2.9-0.1 0.4-2.5 3.3-2.7 3.6-0.3 0.7-1.2 1.4-1.6 1.9-1.2 1.4-3.8 4.4-5.1 5.5 0.3 0.2 1-0.5 1.7-0.7 1.2-0.5 4.1-2 4.8-3.1 0.1-0.1 1.3-1.3 1.5-1.7 0.1-0.2 3.2-3.2 3.7-3.9 1.1-1.5 1.9-4.3 3.7-3.1 2.7 1.9 11 7.3 26 17.8 0.7 0.2 1.7 1.4 2.5 0.1 0.2-0.2 1-1.2 1.3-1.2 0.2 0 0.9 0.1 0.9 0.1 0 1.6 0.8 0.8-0.5 3.2-0.5 0.8-0.2 0.7-1 1.6-1.1 1-1.4 3.8-2.2 3.8-2.1-0.1-1.8-2.3-3.8-3.7 0 0-0.6-0.5-0.7-0.6-0.9-0.7-1.7-1.6-2.6-2.1-0.7-0.3-1.8-3.2-2.3-0.2-0.1 0.7-0.8 3.3-1.3 3.7-1.9 1.6-2.7 3.8-5.5 3.3-0.5-0.1-0.4-0.7-0.4-1.1-0.4-0.8-1.2-0.5-1.9-0.8-0.5-0.2-1.2 0.1-2-0.4-0.8-0.4-3.9-0.1-4.6 0.4-0.1 0.1-1.2 0.4-1.3 0.9-0.5 0.1-1.8 1.2-2.9 0.5-0.4-0.2-0.5-0.3-0.4-1.1 0.1-0.7 2.1-2.4 3-2.7 1.3-0.4 4.3-5.1 5-6.4 0 0 0.5-1.3 0.6-1.6 0.4-0.7 0.4-1.5 1.1-2.4 0.1-0.2 0-1.1 0-1.3-0.8-0.8-7.2-4.9-7.5-4.7 0 0-1.2 1.3-1.3 1.4-1.4 1.2-2.4 2.2-3.9 3.2-0.3 0.2-1.2 1.3-1.5 1.4 0 0.2-3.1 2.1-3.2 2.4-0.6-0.3-4.9 1.4-5.6 1.9-1.4 1-3.2 1.9-4.7 2.5-0.7 0.3-0.7 0.6-1.7 0.9-0.4 0.1-0.3 0.4-0.6 0.4-0.4 0.3-1.3 0.6-2 1.1-0.8 0.6-1.3 0.8-2.1 1.5-0.6 0.5-2.8 1.8-3.6 1.2-0.4-0.3-0.8-0.3-1.2-0.8-0.6-0.6-0.8 0-1.7-1.3-0.5-0.8-1.5-1-2-1.8 0-0.2-0.8-0.8-1.2-1.5-0.3-0.5-0.7 1.2-0.4 1.9 0.2 0.4 0.3 5.3 0.3 6.1 0 2.2-0.3 6.7 0.5 8.5 0.1 0.2-0.1 0.2 0.1 0.3 0.3 1.2 0.4 5.4 1 6.5 0 0 0.9 2.2 1.1 2.7 0.7 1.4 1.3 3 1.9 4.5 0 0.1 1.1 3.5 1.1 3.5-0.2 0.2 0.3 1 0.3 1.8 0 0.6 1.1-0.4 1.7 1.3 0.1 0.3 0.7 1.8 0.8 2 0.4 0.4 1 1.6 0 1.9-1.2 0.3-0.8 0.3-2 0.1-0.6 0-0.3 1.3 0.6 1.6 0.6 0.3 1.8 2.4 2.2 2.9 0.8 1.1 0.9-0.2 1.7 1.4 0.3 0.6 1.1 1.4 1.8 1.4 0.9 0 2.7 1.4 3.1 2.3 0.1 0.3 0.7 0.6 0.8 1 0.2 0.6 2.4 2.3 2.9 2.8 0.1 0 1 0.8 1 0.9 0.1 0 0.3 0.3 0.4 0.3 0.1-0.3-1.9-3.4-2.3-3.7-0.4-0.4-0.1-0.4-0.9-0.9-0.1 0-1.4-1.3-1.5-1.5-0.2-1.5-0.7-1.4-1.2-2.5-0.2-0.5-1.4-1.2-2-2.6-0.4-1.2-1.4-2-1.7-3.7-0.1-0.5-2.2-5.7-2.7-6.1-0.7-0.5-1.2-3.3-2-4.2 0-0.1-0.5-1.4-0.7-1.7-0.1-0.2-0.5-1.9-0.9-2.7-0.3-0.5 0-0.6-0.3-1.2-0.6-1.1-1.3-4.6-1.5-6 0-0.1-0.5-2.1-0.5-2.1-0.2-0.4-0.5-1.7-0.6-2.1 0-0.3-0.7-4.5-0.7-4.5-0.1-0.3 0-1.4-0.2-2-0.2-0.4-0.1-2.8 0.3-3.1 1-0.7 1.1-0.1 2 0.8 0.2 0.2 0.4 0.8 0.9 1.4 0.8 0.9 1.5 2.1 2.6 2.9 0.6 0.4 0 0.6 1.7 1.3 1.2 0.6 0.9 0.5 1.7 1.3 0.4 0.3 2.4 1.7 2.9 1.8 0.1 0 1.7 0.6 1.8 0.7 0.8 1.2-0.2 3.6 0.5 4.9 0.9 1.3 0.3 2.5 1 3.5 0.9 1.1 0.5 0.8 1 1.9 0.7 1.5 1 3.1 1.6 4.7 0.1 0.2 0.1 0.1 0.2 0.4 0.2 1.3 1.8 2.7 2.5 4.2 0.3 0.6 0.9 0.4 1.4 2 0.2 0.7 0.7 0.5 1 1.7 0.4 1.5 1.3 3.1 2.3 4.1 0.1 0.2 1.2 1.7 1.6 2.3 1 1.2 2.1 2 2.7 3.4 0.2 0.6 0.4 0.5 0.6 0.9 0.4 1.1 2 1.5 2.5 2.5 0.2 0.4 6 4 6.1 4.5 0.2 0.5 4.4 2.7 5.2 3 0 0 2.8 1.9 3 2 0 0 1.7 0.8 1.9 0.8 0.9 0.9 3.5 1.9 4.8 2.4 1.2 0.4 2.4 1 3.6 1.3 0.3 0 3.2 1.5 3.8 1.6 0.5 0 1.3 0.6 2.1 0.5 0 0 2.9 0.9 3.9 0.9 1 0 1.9 0 2.9 0.2 0.7 0.2 1.1 0 2.2 0.3 0.3 0 0.3 0 0.6 0 1.2 1.3 11.3 1.1 13 0.5 2.8-0.9 5 0 7.7-0.9 0.6-0.3 1.5-0.3 2.3-0.7 1.5-0.6 2.8-0.7 4.5-1.7 1.5-0.9 2.2-1.2 3.6-2.4 0-0.1 2.8-1.1 3.1-1.1 0.3-0.1 2.8-1.1 3-1.2 1-0.7 1.8-1.9 3-2.4 0 0 3.6-3.1 3.9-3.4 0 0 0.9-0.6 1.1-0.5 1.2 0.7-2.2 3.9-2.8 4.3-0.4 0.2-2.1 1.9-2.3 2.3-0.1 0.2-1.2 1.3-1.5 1.8-0.5 0.8-4.2 4.4-5 4.9-0.2 0.2-2.6 2.7-0.4 2 0.9-0.3 7.3-5.5 9.2-6.2 0.8-0.2 3.1-2.1 3.6-2.8 0.6-0.8 1.7-1.4 2.1-2.5 0.3-0.7 2.4-2 2.8-2.9 0.3-0.2 2.7-2.3 2.8-2.7 0.4-0.1 1.2-2.3 1.2-3 0-1.5-0.2-0.9 0.4-2.3 0.5-1 0.8-0.9 1.2-2.3 0.3-1 1.1-1.9 1-3.2 0-0.2 0.4-2.4 0.5-2.6-0.5-3 1.3-3.9 1.4-4.5 0-0.6 0.1-0.3 0.1-0.7-0.1-1 0.2-1.3-0.3-1.7-0.2-0.2-0.4-1.6-0.2-2 0.3-0.6 0.5-1.9 0.4-2.6-0.1-1 0.8-3.1 0.8-4.7 0-0.7 0.1-5-0.2-5.2-1.1 0.7-0.9 1.6-1.8 2.2-0.1 0-1 1.7-1 2.1 0 1.1-0.7 6.3-2.5 3.8-0.4-0.5-0.3-0.8-1.3-0.7 0 0-0.7 0.8-0.9 0.8-1 0.4-2.4 1.3-2.2-0.6 0.1-0.6 0.7-1.5 0.7-2.2 0-0.7-0.1-0.6 0.3-0.9 0.3-0.8 0-2 0-3 0-1.5 0.4-3.8 0.7-5.4 0.1-0.3 0.2-1.7 0.2-2.2 0-0.6-0.1-1.5-0.3-2.1-0.1-0.2 0-2.3 0-2.7-0.2-0.5-0.7-2.9-0.7-3.4-0.1-0.6-0.4-2.1-0.3-2.7 0-1.1-0.7-2.8-0.7-4.6 0-0.3-0.3-2.3-0.4-2.5-0.2-0.5-1.6-4.9-1.6-5.1 0-0.1-0.2-0.6-0.3-0.8-0.2-1.6-1.4-2.7-1.5-4 0-0.6-1.8-5.5-1.1-0.7 0.5 2.8 1.2 5.4 1.4 8.3 0.2 2.3 0.5 4 0.4 6.4 0 0.9 0.7 1.7 0.7 3.5 0 1.7 0.1 2.4-0.1 4.1 0 0.5 0 1.4 0 1.9 0 0.7 0 2.8 0.3 3.3 0.2 0.5-0.5 6.4-0.7 6.6-0.3 0.3 0.2 0-0.4 0.4-0.1 0-0.9-1.1-1.1-1.3-0.7 0.6-0.1 4.6-2.3 4.6-0.8 0-0.7-2.7-0.9-3.4-0.2-0.6 0.2-5.3-0.8-2.2-0.2 0.8-0.7 0.8-1.5 0.7-0.8-0.1-1.1 0.8-2.1 0.8-0.2 0-0.4 0.6-0.9 0.7 0 0-2.6 2.3-2.2-0.3 0.2-1.4 1.4-3.1 1.6-5 0-0.4 0.2-0.7 0.2-1.3q0-1.1 0-2.2c-0.2-0.3 0-0.6-0.1-1.3-0.1-1-0.4-3.1-0.2-4-0.3-0.3-0.1-1-0.4-1.6-0.2-0.3-0.4-1.2-0.6-0.1-0.2 1.7-0.9 3.6-0.9 5.3 0 0.2-0.3 2.3-0.4 2.4-0.3 0.4-0.7 3.2-1.5 4.5-0.6 0.8 0.1 2-1.6 1.8-0.5 0-0.4-4.4-1.3-2.4-0.5 0.8-0.4 2.8-1.2 3.9 0.1 0.2 0 0.2 0.2 0.3-0.7-0.2-0.4 0.4-0.9 1.1-0.8 1.3-0.3 2.1-1.9 3.6-0.2 0.1-1.6 2-1.6 2.1-0.1 0.3-0.7 1.2-1 1.3-0.1 0-2.8 1.9-2.8 1.9-0.2 0.3-0.9 0.6-1.2 1.5-0.4 1.2-3.6 1.7-4.7 1.1-0.3-0.2-0.9 0.2-1.6 0.2-1.6 0-0.9 0.2-1.8 1 0 0.1-0.2 0.7-0.7 0.8 0 0 0 0.1-0.1 0.1-0.5 0.1-1.2 0.9-1.6 1-1.6 0.2-2.9 2.8-3.6 0.3-0.2-0.8-2.1-0.3-2.7 1-0.3 0.5-2.8 2.8-3.6 2.8-1.6-0.1-1.7 1-2.9 1.1-0.5 0-0.5-1.6-1.6-1.9-0.4-0.1-0.9-1.1-2.4 0.4-0.3 0.4-1.3 1.8-1.7 2.2-0.7 0.4-2.2 2.8-3.3 3.2-0.3 0.1-1.6 1.3-1.7 1.4-0.1 0.2 0 1.5 0 1.9-0.8-0.2-0.8 0.3-2 0.3-0.8 0.1-3.2 3-3.7 2.1-1.1-1.9-1.3-0.4 0.8-3.4 1.1-1.7 1.9-1.8 2.5-2.7 0.8-1.3 3.4-3.3 3.8-4.5 0.1 0 1.5-1.7 1.8-2.1 0.7-1 1.3-2 2-3 0.1 0 1.2-3.5 1.6-4.1 0.3-0.3 1.2-2.6 1.7-3.4 0.6-0.9 0.5-1.6 0.5-2.7 0.4-0.6 0.8-2.4 1.2-3.4 0.6-1.1 1.2-3.7 1-4.9-0.4-2 0.9-3.8 1-5.9 0-0.3-0.1-0.4 0.1-0.7 0.3-1.4 1.9-2.3 3.5-1.2 9.4 6.2 21.1 13.5 21.9 14.5 1.4 1.9 3-1.4 3.6-2.5 0.2-0.5 1.5-2.9 1-3.3-6.6-4-14.7-9.2-19.7-12.3-0.3-0.2-0.3-1.7-0.3-2.2 0.1-0.7 1-0.3 1.8-0.5 1.2-0.3 0.9-0.1 2.3-0.7 0.9-0.4 1.8 0 3.4-1.1 1.2-0.8 1.9-0.7 3-1.9 0.2-0.1 0.8-0.7 1-0.7 0.5-0.8 1.6-1 2-2.4 0.3-0.9 0.6-0.7 0.8-2.1 0.1-0.6 0.3-0.4 0.3-1.4 0-1.4-0.7-3.5-1.5-4.7-0.3-0.5-0.3-0.1-0.6-0.9-0.1-0.1-1-0.7-1.4-1.5 0 0-1-1.1-1.1-1.4-0.5-1.2-2-1.2-2.7-2.1-0.5-0.6-1.3-0.7-2.1-0.7-0.5-0.6-2-1.5-2.8-1.6-0.4-0.1-1.5-0.7-2.2-0.7-2 0-1.9-0.1-3.7 0.6-0.2 0.1-1.5 0.5-1.5 0.1q-3-11.8-6.5-20.3-0.9-2.3-2-7.4 3.4 0 6 4.8 1.2 1 2.4 0.4-3-4.4-1.3-5.2 1.3 0.7-1-5.5-1.8-1.2 0-3.3 1.6 2.3 4.5 3.6c-2.9-2.9-4.1-4.3-3.5-5.4-0.2-0.3 1-0.6 3.3 0.5-1.2-1.3-4.6-2.9-12.8-6.6q-8.6-4-19.7-2.4-5.5 0.7-10.9 4.5c0.7 0 2.1-0.4 1.1 0.7-0.3 0.4 0.5-0.3-0.2 0.6-0.4 0.5-1.1 1.2 0 0.8 0.6-0.3 2.5-1.3 3-0.6 0.4 0.4-0.4-0.1-0.1 0.8-0.4 0.4 0.7 0.1-0.1 0.5-0.4 0.2 0.2 0.5-1.1 0.8-2 0.3-1.9 1.8-3.6 3-0.1 0.1-1.3 1.6-0.1 0.7 0.6-0.4 3.3-1.9 3.9-1.3 2.5-0.3 3.8 0 6.2-1.3 0.1 0 4-1.5 4.1-1.5 0.4 0 1.5 0 1.9-0.1 0.7-0.3 2.6 0.2 3.3 0.4h0.3c0.4-0.6 2.8 0 3.5 0 1.7 0 2.5 0.2 4 0.9 0.1 0 2.9 0.1 1.6 0.7-1 0.4-3.8 0.7-4.9 0.7-2.3 0-3.5-0.2-5.4 0.9-0.6 0.4-0.6 0.2-1.1 0.8 0 0-1.6 0.3-1.7 0.4-0.5 0.3-2.5 0.2-3.6 1.2-0.8 0.9-0.3 1.2-0.4 2.4 0 0.1 0.4 0.9 0.4 1.7 0 0-0.1-1.2 0.2-1.7 0.1-0.3 0.1-1.6 0.9-2 0.9-0.4 1.5-1.2 2.8-0.7 1 0.3 1.9 0.9 1.9 2.2-0.1 0.5 0.3 1 0.3 1.9 0 0.2 0.4 1.9 0.5 0.3 0.2-1.4-0.2-2.7-0.2-4.1 0-0.8 1.9-2.5 2.3-1.7 0 0 2.1 1.8 2.4 2.1 0.5 0.7 2 0.8 2.4 2.1 0.3 1.3 1.7 4 1.8 5.1 0 0.1 0.6 1.8 0.8 1.9 0.4 1.4 0.4-1.3 0.1-1.9-0.4-0.7-0.8-2.7-0.8-3.5 0-0.7 0.1-2.5 1.2-2.3 0 0 0.8 0.8 0.9 1 0 0.2 1 2.2 1.1 2.3 0.6 0.7 1.4 2.2 1.6 3.2q5 14.1 5.1 21.9 0.8 4.6-3 5.3-1.8 0-3.6 0-0.7 2.3 0 6.9 5.3 7.2 2 8.7-14.6-6.5-10.6-7.7 1.9-0.6 0-1.3-8.9-5.9-16-10.8 6.2-14.5 2.7-30.7-2.1-0.3-3.6 0.8 2.8 15.3-2.2 26.7zm-3.7-18.5c-0.2-0.9 0.5-1.3 0.5-2.2 0-0.2 0.5-2.7 0.3-2.9-0.1 0.3 0.5 1.4 0.5 2.1 0 2.2 0 3.5-0.4 5.6-0.2 0.9 0 1.8-0.3 2.7-0.1 0.4-0.1 1-0.4 2-0.8 2.5-2.4 4.6-3.5 6.9 0 0.1-1.2 2-1.2 2.1-0.5 0.7-0.6 1.5-1.5 2.1-0.1 0.1-0.9 1.5-1.6 1.7 0 0.1-0.4 0.4-0.5 0.7-0.1 0.2-0.2 0.4-0.3 0.6-0.6 0.7-0.6 1.2-1.2 1.8-0.7 0.6-1.3 0.6-1.9 0.8-2.2 0.7-1 0.5-0.9 0.8 0.3 1.1 1.7 1.1 2.5 1.8 0.9 0.8 0.2 2.2-0.1 3.1-0.3 1-1.9 3.6-2 4.4-0.1 0.4-0.4 0.6-0.6 1.1-1.1 2.6-1.8 2.6-3.3 4.7-1.8 2.4-2.9 1.9-3.3 2.5-0.3 0.3-2.3 1.9-2.6 2.1-0.5 0.2-1.8 1.3-1.9 0.9-0.5-0.1-0.3-3-0.2-3.5 0.1-0.8 0.4-1.5 0.9-3.1 0 0 0-5.3-3.4-1.5-0.8 0.9-0.7 2.1-1.1 2.9-0.2 0.5-0.4 1.6-0.4 1.7-0.2 0.3-0.5 2.2-0.7 2.7-0.2 0.8 0 2.2-0.6 1.8-0.4-0.3-0.3-3-0.3-3.7 0-1.2-0.1-2-0.1-3.2 0-0.8 0.1-1.2 0.2-1.6 0.1-3.1 2.4-5.2 3.6-7.7 1.3-2.4 1.6-4.7-1.1-1.9-1.3 1.3-2 2.6-2.6 3.8-0.7 1.7-3.6 6.4-4.1 10.4-0.2-0.9 0.8-6.4 1.2-7.3 0.4-0.9 1-2 1.1-3 0-0.3 0.7-1.8 0.8-2.5 0.1-1.1 1.6-4.7 2.4-5 0 0 0.9-2.5 0.9-2.6 0.7-1.6 0.1-0.4 0.9-1.6l0.1-0.1c1.1-1.6 2.6-3.3 4.1-4.5 0.6-0.4 0.5-0.9 1.7-1.5 0.8-0.5 0.9-1.1 2.3-1.1 0.4 0 1.1-0.2 1.8-0.2 1.3 0 1.9 1.2 2.2 2.3 0.2 1.1-3.5 3.4-3.6 4-0.1 0.3-0.7 1.2-1 1.4-0.3 0.2-0.8 1.1-1.5 1.5-0.4 0.3 0.1 0.6 0.9 0.4 1.1-0.3 1.5-0.2 2.5-1 0.3-0.3 1.4-0.2 2-0.7 1.3-0.9 2.2-0.8 3.5-2.2 1.1-1.3 1.8-2.3 2.8-3.5 0 0 1.2-1.1 1.2-1.1 0.6-0.3 1.6-1.8 2.1-2.4 0.8-0.9 2.5-5.3 2.8-5.6 0.6-0.6 2.3-5.2 2.4-6.2zm-76.8-37.6c0.9 4.4 5.2-1.4-1.6 4.6-0.7 0.6-8 5.9-8.1 6-0.2 0.5 1-2.4 1.3-3 0.8-1.3 2-3.3 3.4-3.8 2.5-0.9 2-1.7 3.9-2.9 0.4-0.3 1.2-0.5 1.1-0.9zm-11.5-1.6c1.4-1.3 2.7 0.4 4.1 0.4 1.2 0-3.4 2.7-3.6 2.8-0.1 0-1.7 1.3-2.1 1.5-0.8 0.2-2.6 3.6-3.4 4.3-0.1 0.1-0.1 0.1-0.3 0.3l0.2-0.1c0-3.2 0.7-3.5 2.1-6.2 0.4-0.8 2-1.3 2.9-2.8zm136.8 143q0 1.5 0 2.4 7.9-0.7 16.4-5.4 16.1-9.7 23.7-19c-8.7-5.1-8.8-5.1-15.7-8.4q-12 29.7-49.2 25.8-0.5 1.6 1 2.4-0.3 1.6 3.3 1.7 1.2 2.2 7.6 1.6 8.2 0.1 12.9-1.1zm7.5-71.7c0.8-0.3 1.2-0.4 1.9 0.2 0.2 0.2 0.3 3.8-0.2 4.4-0.3 0.3-1 1.9-1.5 1.5-0.3-0.3-1-0.7-0.5-1.1 0.1-0.2 0.3-1.7 0.3-2 0-0.4-0.1-3 0-3zm-2.9-0.2c1.7 0 1.8-0.5 1.8 1.9 0 0.4-0.2 2.6-0.3 2.8-0.2 0.3-0.2 2-1.6 1.4-1.1-0.4-1-2.9-0.4-3.7 0.2-0.3 0.4-1 0.4-1.4 0-0.5 0.1-1 0.1-1zm-210.8 165.5c0.1 2.2 0.1 8.9 0.4 10.8 0.7 3.2-0.5 18.9 0.3 21.3 0 0 0.6 4.5 0.7 4.8 0.5 1.3 0.2 4.9 1.4 4.8 2.7 0 5.5-0.3 8 0.6 1.3 0.5 5 1.2 6.3 1.3 2.6 0.4 2.5 0.4 5.3 0.4 1.9 0 7.5 0.5 8.4-0.1 3.8-2.6 1.5-0.3 4.1-4.5 0.9-1.5 1.7-3.3 2.3-4.8 0.6-1.7 0.8-3.2 1.6-4.5 0.3-0.6 1-12.1 2-15 0.2-0.6 1.4-5.3 1.4-5.9 0-1.7 0.1-5.5-0.5-7-0.6 0.8 3.8 8 3.8 4.3 0 0 0.4-2.4 0.4-2.9 0.5-3.8 0.8-28.6-0.3-31.1-1.3-2.9-1.8-7.3-1.6-10.5 0-0.9-0.9-2-0.3-1-0.3-0.7 0.1-0.5-0.6-1.5-1.1-1.4-0.9-3.2-1.4-4.8 0-0.1 0-1.6-0.1-2.3-0.1-0.4-0.5-5.7-0.5-6.5 0-0.4 0.1-2.3-0.1-2.5-0.7-0.9 1.9-1 1.8 1.3 0 0.2 0.8 2.9 0.9 4.4 0 0.8 1.3 6 1.6 7 0.4 1.4 0.1 2.4 0.7 4.5 0.4 1.4 0.8 7 1.3 7.9 0.2 0.4 1 4.1 1 4.6 0 2.8 0.6 4.9 0.9 7.6 0.2 2.4 1.1 4.9 0.6 7.4-0.4 2.2-0.6 4.6-0.5 6.9 0 0.2 0 0.3-0.1 0.6 0.2 2.9 0.2 3.5 0.9 6.4 0.1 0.6 0.3 2.7 0.4 3.5 0.6 3 0.7 2.8 0.7 6 0 2.5 0.3 5 0.8 7.5 0.1 0.6 0.5 6.3 0.5 7.2 0 1.9 0.1 3.7-0.2 5.6-0.2 0.8-0.2 5.4 0.2 6 0.4 0.7 2.2 2.6 2.9 2.6 2.9 0 6.9 0.3 9.5-1.2 1.3-0.7 1.8-0.1 3.4-1.6 1.5-1.4 1.3-0.6 2.9-2.5 0.9-1.2 2.9-2.4 3.3-3.7 0.2-0.6 0.9-1.5 1.1-2.5 0.8-2.9 1.5-2.1 1.7-6.3 0-1 0.1-3.9 0.2-4.6 0.4-1.4-0.3-9.9-0.4-12-0.1-3.5-0.7-6.6-1.2-10-0.5-2.9-0.1-6.2-0.7-9.4-0.3-1.7 0.3-7.5-0.1-8.8-0.2-0.4-0.1-3.6-0.1-4.3 0.2-2 0.6-1.5 0.6-4.4 0-5.3-0.2-10.4-0.2-15.7 0-1.9-0.3-2.8-0.3-4.6-0.1-1.8-0.9-3.7-1-6.1 0-0.9-0.7-3.1-0.7-4.6 0-2.2-1.1-5.9-1.9-8-1.2-3.2-0.7-2.1-2.6-4.3-2.1-3.2-2.8-5.1-6.6-6.4-1.3-0.5-2-2.3-0.3 0.9 1.2 2.4 1.9 3.8 2.6 6.3 0.9 3.4 0.7 2.9 0.7 6.4 0 5.2 0.5 3.4 1.5 7.9 1.1 4.7 0.6 5.8 0 10.1-0.2 1.6-0.8 2.8-1.2 4.5-0.3 1.3-0.5-1.2-0.7-1.8-0.9-3.5-1.4-7.8-1.4-11.4 0-7.5-1-8.1-3.4-14.8-0.1-0.6-1.5-5.7-1.5-3.3 0 2.4-0.1 3.7 0.7 6.1 0.4 1.3 0.3 5-0.3 6.5-0.5 1.4 0.1 2.3-1-0.7-0.3-0.6-1.9-6.2-2-6.9 0-1.2-1-4.2-1.8-5.1-0.8-0.9-1.4-4.7-1.4 0.3 0 1.3 0.2 4.2 0.6 5.5 0.4 1 0.8 7.7 0.8 9.2 0 2.7-0.2 8.4 0.1 10.7 0.1 0.6 0.6 3.1 0.2 1-0.4-1.9-1.4-4-1.7-5.9-0.1-0.4-0.3-0.5-0.3-1.1-0.1-1-1.1-7.8-1.3-8.7-0.6-2.1 0-1.9-1.1-4.6-0.3-0.7-1.2-2.9-1.3-3.5-0.1-0.9-1.6-5.4-2.1-6.2-1.2-1.6 0-1.2-3.5-1.2-2.4 0-4.5 0-6.9 0.5-0.8 0.2-2.7 0.4-3.3 0.7-0.4 0.2-2.2-0.1-2.9 0.1-1.4 0.6-0.7-0.1-1.3 2.1-0.5 1.7-0.7 6-0.1 7.7 0.1 0.2 1 3.8 1 3.8 0.2 1.1 0.5 1.5 0.5 2.9-0.1 2.6 0.4 3.8-0.3 6.6-0.2 0.7 0.1 0.5-0.4 1.8-0.2 0.7-0.2 4.4-0.2 1.2 0-3.4-0.2-3.1-1-6.2 0 0-0.4-2-0.4-2 0.1-0.9-0.1-7.6-1-7.7-2.9-0.3-2.2 14.2-2.2 16.5 0 4.1 0.6 8.5-0.7 12.4-0.9 2.7-0.7 5.7-0.7 8.6 0 0.1-0.6 2.2-0.6 2.7 0 1-0.5 2.6-0.5 3.6 0 0.6 0.1 4.6 0 4.7 0 0.1 0.1 1.2-0.2 2-0.2 0.4-0.1 0.7-0.1 0-0.2-1.1-0.5-2.2-0.4-3.3 0 0-0.2-1-0.3-1-0.1-0.3-0.2-0.6-0.1-0.9 0-0.7 0.1-5.2 0.2-5.5 0.4-0.8 0-6.6 0.3-7.6 0.4-1.9 0-2.7 0.2-4.1 0.2-1.8 0.3-12.5 0.1-13.8-0.5-2.3-0.3-4.2-0.3-6.6 0-1.1 0.1-8.4-0.4-9.1-1.6-2-1.3-6.1-1.7-6.7-0.3-0.6 0.4-1.1-1.3-0.6-0.8 0.2-5.3 0.6-5.4 1.1-0.5 2.2-1.8 3.2-2.4 4.6-0.5 1.2-3.7 5.2-3.7 5.2-0.1 1.9-2.2 5.4-2.4 6.7-0.8 0.3-0.4 4.3-0.4 5.3 0 1.6 0 2.5 0.5 4.2 0.5 1.8-0.5 10.8-1 12.8 0 0.2-0.8 5.8-0.8 6.2 0 2.2 0.3 7.8-0.4 9.5-0.1 0.2-0.5 4.8-1 6.2-0.3 0.7-0.5 6.9-0.8 7.5-0.2 0.2 0.1 5.4-0.3 6.6 0 0.1-0.1 1.7-0.1 1.6m-11.8-71.1c-0.5 4-1.2 8-2.7 11.7 0 0-0.3 2.9-0.5 3.6-0.1 0.6-4.7 35.1-4.7 35.7 0 6.1-2.7 4.9-2.7 5.7-0.1 2.3-0.2 2.7-0.7 5-0.2 1-0.6 5.8-0.6 5.8-0.5 1.5-1 7.3-1.4 9.5-1.3 6.6 0.8 4.2 0.8 7 0 1.6-0.7 3.1-0.7 3.5-0.2 2.1-1.2 9.5-0.7 11.3 0.5 1.9-0.3 6.3 1 6.3 0.9 0 2.2 3 3.6 2.1 1.4-0.8 0.7 0.6 2.9 1.9 1 0.6 5.1 0.6 5.3 0.4 2.4-1.5 2.2-0.6 3.5 0.6 1.7 1.5 1.5-13.3 2.2-14.8 1.1-2.2 0.4-7.2 1.9-9.7 0-0.4 0.6-6.3 0.7-6.4 0.9-1.8 0.1-2.6 0.8-4.8 2-6.2 0.1-15.1 2.4-21.1 1.6-4.1-1-28.2 1.3-30.7 0-0.1 1.7-4.5 1.9-5 0.7-2.5 0.7-20.9 0.6-20.8-2.5 0.3-1.4 0.5-5 0.5-3 0-1.1 6.5-2 8.1-0.5 0.9-0.3 4.9-0.6 5.4-0.9 1.6-0.1 3.2-0.6 4.8-0.3 1.1-3.1 15.4-3.1 15.4 0.1 1.9 0-7.1 0-7.2 0.8-2.2 0.4-6.8 0.4-9.3 0-4 1.3-7.4 1.3-10.2 0-3.1 0.8-4 0.8-5.4-1.2 1.3-3.1 0.4-5.4 1.1zm-6.2 117.2c2.1-1 6.7 0.3 10.8-1.6 1.2-0.6 6.6 0.5 8.5 0.5 5 0 3.3 1.5 8.6 1.5 10.5 0 5.2 11.6 7 18 0.5 1.5-0.1 3.9 0.6 5 0.8 1.4-0.6 11 0.2 13.7 0.8 2.8-1.2 4.9 1.2 7.5 3.8 4.1 1.8 5.2 4.3 9.3 0.2 0.4 2.7 8.2-1.6 6.7-2.9-1.1-17.5 3-20.5-0.8-0.1 0-8.5-3.8-10-4.9-3.4-2.7-3.3-2.6-4.3-7.2-0.8-3.3 1.6-1.7 4.4-3 0.4-0.1 5.8-1.4 6.5-1.6 1.7-0.4-0.2-0.9 3.8-1.1 1.2-0.1 3.5-3.8 0.7-3.8-3.6 0-5.8-0.2-9.2 1.1-0.2 0.1-8.1 0.1-8.6-1-0.7-1.4-3.3-2-0.3-4.2 1.2-0.9 0.5 0.3 2.7-1.9 1.5-1.6 8.2-0.8 11.7-3.7 0.1-0.1 3-0.1 2.7-2.2-0.3-2.9-10.4-0.1-11.9-2.1-0.4-0.6-2.2-1.1-3.5-2.3-4.7-4.1-2.6-2.7-3.1-8.6-0.1-1.8-1.3 0.9-0.9-4.5 0.1-2 0.3-5.8-0.7-7.4-0.6-1.1-0.1-1.4 0.9-1.4zm43.9 70.5c3.2 0.6 2-0.9 2 2.9 0 0.5 0.7 0.5 0.7 3.2 0 3.3-0.9 4.1 1.2 6.6 0.5 0.6-0.3 4 0.4 5.5 0.3 0.7 0.5 3.2 0.3 4.1-0.4 1.7 0.4 6.3 0.4 8.7 0 3.4 0 6.4 0.2 10 0.2 4.5 2.3 8.4 2.3 12.1 0 2.8-0.1 7.6-2.4 1.6-0.3-0.5-2.9-13.9-2.9-14.9 0-2.4 1-4 0.3-7.2-1.6-6.6-2.3-9.9-1.8-16.9 0 0-1.4-3.4-1.4-5.5 0-1.4 0.3-4.3-0.4-5.3-0.7-1.1 1-3.1 0.9-4.4zm1-56.4c0.3-1.1-1.3-2.4-0.2-3.8 1.6-2.1 0.7-3.8 1.6-5.8 0.7-1.9-2-2.8 1-2.9 3.4-0.1 4.7-2.2 8.1-2.5 1.6-0.1 1.7-1.5 5-1.7 0.9-0.1 2.1-0.6 3.5-0.6 1.7 0 4.7-0.5 5.9 0.9 0.8 1 7.6-1.1 8.6-1.2 2.5-0.2 9 0.4 10.5-0.8 0.3-0.2 2-1 1.8 0.5 0 0.7 0.4 3.9 0.4 5.2 0 3.7-1.4 2.8-1.1 6.3 0.1 1.8-0.1 6 0.1 7.5 0 2.5-0.3 5.2-0.3 7.6 0 1-1.7 2.6-1.6 3.3 0 1.5-0.1 0.8-0.4 1.6-1.1 2.3-6.6 1.9-6.6 3.6 0.7 0 4 1.9 5.7 2 3.2 0.1 1.8 0.2 2 2.4 0.2 2.3-1.8 1.8-1.8 4-0.1 3.5-1.3 4.2-1.3 7.5 0 0.4-1.9 4.4-2.1 4.7-1.9 2.8 1.1 2.9-2.6 5.6-1.5 1.2 0.1 2.8-0.5 3.8-0.7 1.4-0.3 1.9-1.9 2.8-3.6 1.9-4.6 0.8-7.7 0.9-3.1 0.1-5.4 0.6-8.8 0.3-5.3-0.4-5.7 0.5-10.5-2.3-2.5-2 0.1-2.6-2.4-5.3-0.9-0.9-0.6-2.9-1.5-4.3 0 0-0.8-2.7-0.8-3 0-3.4-1.4-1.9-1.4-6.1 0-1.8-1.7-0.5-1.7-5.3 0-2.3 0.4-3.6 1.8-5.5 1.2-1.8 5.1-1.2 6.4-2 0.1 0 4.9-1.1 4.6-0.4-0.6 1.6-3 3.8-4.9 4.1-1 0.2-1.8 1.1-2.8 1.2-0.4 0-2.3 0.7-1.9 2 0.8 2 1.2 1.9 3.6 1.9 2 0 7.7-0.3 9.3 0.2 0.6 0.2 6.7-0.3 6.7 0.2 0.1 1.6-2.9 0.7-4.1 4.3-0.5 1.8-7.3 2.7-8.2 3.4-3.4 2.7 8.2 0.1 8.9 0 0.8 0 4.3-2.6 4.6-3.5 1.4-3.2 3.3-0.7 4-5.4 0.1-0.6 2.8-3.7 1.8-3.6-1.7 0-4.5 0.4-6 1.2-0.1 0-9.2 0.2-6-1.6 1.7-1 3-1 4-1.8 0.6-0.4 1.6-0.7 1.2-2.1-0.1-0.7-0.6-1 0.4-1.9 0.9-0.8 6.7-1.6 2.7-1.8-0.1 0-1.3-0.9 0.6-1.1 1.3-0.2 1.7-0.4 3.2-0.4 0.1 0 3.3-1 3.5-1.9 0.3-1.3 2.6-0.3 4.1-1.6 0.5-0.5-4.6-0.3-5.4 0.2-0.5 0.3-1.6 0.6-2.2 0.4-0.2-0.5 0-0.5-1.3-0.4-5.2 0.4-10.7-0.3-15.7 0.1-1.6 0.1-6.6 0.7-7.2-0.8-0.3-0.6-2.1-4-2.4-4.1-1.3-0.7-1.1 1.3-1.4 1.4-1.7 0.1-0.9-4.5-0.9-5.6zm-30.3-339c0.1-0.9 3.5-6.6 4-6.8 1.4-0.6-1 4.5 2.6 2 2-1.4 2.5-0.4 4.6-1.8 1.2-0.8 2.8-1.6 3.8-2.5 0.8-0.7 5.4-1.7 6-0.9 0.2 0.3 0.6-0.3 1.5 0.9 0.6 0.8 2.6 0.2 0.4 0.8-0.7 0.1-3.3 0.3-3.6 0.7 0 0-5.2 0.9-5.6 1.4-0.1 0.1-5.1 2.1-6.1 2.7-0.8 0.4-4.9 2-5.5 2-0.8 0.1-2.1 1-2.1 1.5zm-3.5 15c-2.4-4.5 0.3-3.6 1.2-4.8 0.2-0.3 2.1-1.6 2.6-1.7 0.5-0.1 5.9-2.5 6.4-2.8 0.5-0.3 10.3-3.7 10.8-3.7 0.4 0 3.3-0.7 4.3-0.7 1.5-0.2 1.9-0.3 3.6-0.3 1.6 0.1 6.8-0.7 7.9-0.4l0.2-0.6c0.7 2 1.9 2.4 1.8 4.2 0 0 0.7 2.4 1.2 2.6 0.9 0.6 2.4 5.2 3.7 3.4 0.2-0.3 2.4-2.2 3.1-2.4 1.3-0.4 0.9-0.9 3.3-0.9 2.7 0 3.2 2.8 3.3 2.9 0.3 0.2 0.3 3.6 0 3.9-0.7 0.8-1 3.5-3.4 5.7-1.4 1.3-0.8 0.9-1.3-1.1-0.2-0.6-1.4-5.1-1.6-5.4 0 0-1.1-1.3-1.1 1.1 0 2.2 1.6 5 1.4 6.6 1.8 1.3-1.7 6-0.6 7.3 0 0.1 0.4 2.4 0.5 2.8 1 2.9 0.4 2.6 0.7 4.4 0.1 0.5 0.7 1 0.9 2.6 0.2 1.2 3.4 2.6 1.9 4-0.2 0.1-0.9 1.5-1.8 1.6-0.4 1-3.9 0.4-4.4 0.1-1.9-1.3-2.5-3.8-3-4-0.1-0.7-2-1.5-2-2.1-0.1-1.8 1.3-2.9 1.4-3.2 1.3-0.4 2.2-7.6 0.7-4.4-0.2 0.3-2.8 3.8-3.1 3.9-0.2 0.6-3.2 2.5-4.4 2.5-1.4 0-1.4 0.3-2.8-1.2-2.2-2.4-4.1-0.6-4-2.4 0-0.3-0.5-0.7-0.4-1.7-1.8-2-1.7-5.2-5.1-5.1-0.5 0-1.1-0.6-1.8-0.5-0.3-0.4-3.3-1.3-3.9-1.2-0.1 0-3.7-1.6-3.7-1.7v-0.2c-0.7-1.1-2.5 0.6-2.7-0.3-0.2-1.1-1.6-8-2.5-8.5-0.9-0.4-0.5-0.5-1.6-0.8-0.4-0.1-4.9 0.8-4.9 1.4 0.1 0.6-1.3 1.1-0.8 0.8l0.1-0.2m0 2.1c1.6-0.4 4.2-1.9 5.8 0.5-1.4 0.9-3.8 2.5-2.6 2.5 0.1 0 0.3 0.1 1.3-0.2 0.7-0.2 2.1-1 2.5-0.4 0.2 0.4 0.7 2.6 0 2.6-0.1 0-0.6 0.5-1.2 0.6-0.4 0-0.8 0.7-1.4 0.3-1.9-1.1-1.3-4.4-4.4-5.9zm17.2-1.6c1 1.6 0.4 0 1.1-0.2 0.2-0.4 1.4-2.1 2.5-1.8q0.2 0.1 0.3 0.2c0.1-0.2 0.3-0.4 0.7-0.4 0.3 0 0.6 0.3 0.6 0.7 0 0.3-0.1 0.5-0.3 0.6 1.7 0.4 3-0.8 2.8-1.8-0.2-1.1-0.4-0.7 1.5-0.4 0.4 0.1 1.2-1.1 1.2-1.2 0.4-0.1 0.8-0.8-0.3-0.8-1.1 0-3.5-0.3-4.3 0.2-0.9 0.4-1.1 0.2-2.9 0.9-0.5 0.2-1 1.1-1.2 0.4-0.6 0.4-0.7 0.9-1 1.8-0.3 1-0.8 1.8-0.7 1.8zm-16.9 45q-8.9-3.3-10.6-10.9 0.7-1.9 2.6-2.6 3.1 8.3 9.6 10.7-0.7 2.2-1.6 2.8zm-5.7 11.2q-10.7-4-11.1-14.3 0.4-1.5 1.9-2.5 4.6 10.4 12.7 9.9-0.8 3.7-3.5 6.9zm10.1-14.2q-6.6 11.4-11.1 27.2 6.6-15.2 13.9-26.5-1.2-0.9-2.8-0.7zm-24.2 13.6q-1.5-2.2-2-5.8 0.2-3.7 1.6-0.6 3.7 9.8 12.1 11.1 1 0.6 0 0.9-4.6-0.4-6.6-2-3.2-0.6-5.1-3.6zm-20.8 11.7c0.8-0.2 1.1-0.6 1.4-1.2 0.1-0.2 0.7-1.1 0.9-1.1q8.6-8.3 14.9-14.3 1.2 5 3.2 7.6c-0.2 0.6-1 1.4-1.4 2.3-0.3 0.8-1.7 2.6-1.9 3.6-0.1 0.4-0.6 1.5-0.7 2.1 0 1-1.3 1.8-1.2 3.5 0 0.2-0.5 1.4-0.5 2.3-0.6 1 0 1.7-0.4 2.2-0.2 0.5 0.2 2.2-1.1 2.5-2.2 0.5-1.5 1.6-2.3 2.2-0.2 0.1-1.4 1.5-1.4 1.7-0.1 0-1.7 1.5-1.6 2.2 0 0.8-1.7 1.9-1.8 2.8 0 0.1-0.3 0.3-0.2 0.4-0.3 2-0.6 1.3-1.1 2-0.4 0.7-0.4 0.4-0.8 1.5-0.2 0.5-1 1.3-0.7 2.5 0 0.3 0.2 0.5 0 1.1-0.3 0.7-2.8 3.6-3.4 4-0.1 0-0.6 0.9-1 1-0.1 0.2-1 1-1.2 2 0 0.3-0.1 0-0.1 0.4-0.2 1.5 0.2 0.7-0.5 2-0.3 0.7-2.2 0.8-3 1.5-0.1 0.1-1.4 0.8-1.6 1-0.1 0.2-0.9 0.5-0.9 0.9-0.4 0-2 2.9-2 3.4 0 0.9-0.8 1.5 0.7 1.7 0.8 0.1 0.8 0.2 1.7 0 1.1-0.2 0.9-0.4 2.1-0.3 1.3 0 5.6-1.7 6-1.6 0.7 0 5-2 5.8-2.4 0.7-0.4 2.7-1.3 3.5-1.4 1 0 2.2-1.5 3-1.3 0.1 0.3 0.6 0.1-0.4 0.9-0.1 0-0.9 0.6-1 0.6-0.6 0.9-0.8 0.8-1.6 1.5-0.6 0.5-1.2 0.8-1.9 1.5-0.5 0.6-1.2 1-2 1.3-0.6 0.3-1.3 0.9-1.9 1-0.9 0.2-0.5 0.5-1.8 0.7-0.5 0-2.1 1.2-3.2 1.3-0.6 0.1-1.6 0.4-2.4 0.5-0.3 0-1.7 0.8-2.7 0.9-0.4 0-1 0.8-1.1 0.8-0.1 0.2-1 1 0.8 1.2 1.1 0.1 0.8-0.1 0.9 1 0 0.3-0.6 0.4 0.1 1 0.1 0 0.1 0.5 0.1 0.5-0.6 0.9 0.5 0.8-1.8 2.2q-0.6 0.4-1.3 0.4c-0.7 0.1-2.5-0.5-2.9-1-0.3-0.4-0.5-0.1-0.6-1.1 0-0.4-0.1-0.3-0.1-1 0-1.2 0-0.9-0.2-2l0.1-0.4c-1.1-1.8-0.3-2.2-1.4-3.3-1.3-1.3-1.3-2.8-0.5-4.4 0.8-1.5 0.2-2.3 0.7-3.3-0.2-0.4-0.3-3.8-0.2-4.3 0.3-0.7-0.2-1.4 0.7-3.4 0.7-1 1-2.4 0.9-3.6 0-0.9 0.9 0.1 0.9-2.6 0-1.1 0.2-2 1-2.9 0.5-0.6 0.1-3.4 0.3-4.1 0.5-1.2 0.6-2.1 1.7-3 1.5-1.2 1.6-3.4 1.9-3.7-0.6-1.2 1.7-4.4 2.6-5.1 0.7-0.7 0.3-1.7 2.4-2.6 1.2-0.6 1.7-2.2 2.1-2.3m10.4-4.7c0-0.2 1-1.3 1.5-1.4 0.3-0.1 0.9-1.2 0.8 0.3 0 0-0.6 1.9-0.6 1.9-0.3 0.5-0.6 2-1 2.4-0.4 0.3-0.4 2.2-1.5 3.4-1.2 1.2-1.5 3.9-3.2 4.8-0.8 0.5-0.5 2-3.4 2-1.4 0-1.1-1.1-1.1-2.1-0.1-1 1.6-3 2.4-3.5 1.4-0.8 2.2-2.8 3.2-4.1 0.3-0.3 0.6-0.8 1.1-1 0.1-0.1 1-2 1.6-2.4 0.1-0.1 0.2-0.2 0.2-0.3zm34.5 19c-3.2-0.6-2.6 0.6-4 2.2-0.5 0.6-0.7 0.9-1.4 1.6-1.6 1.4-2.6 2.9-3.8 4.6-1 1.4-0.8 2-2 3.6-0.3 0.3-3.7 6.3-3.8 6.6-0.2 0.9-0.3 1.6-0.4 2.5-0.1 1.1-0.4 1-0.4 2.5 0 0.2-0.2 1.3-0.4 1.5-0.2 0.8-0.2 3-0.4 4-0.3 1.7-0.6 3.4-0.7 5.1 0 0.4-0.4 2.8-0.3 3 0 1 0.4 1.2 0.4 2.6 0 0.7 0.3 1.9 0 2.4-0.2 0.3-0.4 3.8-0.4 4.4 0 0.8 0.2 1.3 0.3 2.1 0.1 0.2 0.2 0.4 0.2 1 0 0.8 0.2 0.8 0.8 0.8 0.4 0.2-0.9 3.8-0.8 4.6 0 0.6-0.2 2.8 0.1 3.2 0 0.1 0.1 1.9 0.2 2.1 0.2 0.9-0.2 1.4 0.2 2.1 1 1.9 0.7 1.8 0.3 3.9-0.1 0.4-0.6 0.7-0.4 2 0.1 0.4 0 1.9 0.3 1.9-0.4 0.5 1 3.4 1.1 4.4 0.2 1.3 0.5 1.5 0.4 3 0 0.1 0.3 1.3 0.2 1.8 0.2 0.2 0.3 3.1 0.2 3.2-1.1 0.6-0.8 2.1-2-0.7-0.5-1-0.9-1-1.2-2.4-0.3-1-0.5-0.3-0.5-2 0-0.9 0.3-3.2-0.8-3.4-0.1-0.1-0.5-0.7-0.6-1.4-0.1-0.5-0.5-1.7-0.5-2.2 0-0.8-0.2-1.6-0.3-2.3-0.2-0.6 0.1-0.9-0.2-1.8-0.2-0.8-0.2-2.5-0.2-3.3v-0.2c0-1.3-0.3-1.1-0.3-2.6 0-2.3 0.6-2.2 0.9-3.8 0-0.4 0.1-0.3 0.1-0.9 0-0.9 0.8-1.4 0.8-3.2-0.1-1.4 0.1-2-0.3-3.4-0.1-0.2-0.2-1.2-0.3-1.4 0.2-1-0.6-3.7-0.2-4.3 0.1-0.2 0.1-1.7-0.1-2.1-0.7-1.3-1.1-1.3-1.1-3 0.1-1.2-0.2-0.9 0.2-2.3 0.1-0.2 0.2-1.8 0.2-2.2 0-0.8 0-1 0.2-1.9-0.5-0.5-0.1-2.1-0.4-2.8-0.4-0.7-0.6-4.1-1.1-4.8 0-0.1-0.4-1.2-0.6-1.5-1.4-3-3.4 1.4-3.8 2.8-0.3 1.1-0.6 1.1-0.8 2.6-0.1 0.3-1.6 4.2-1.8 4.9-0.2 0.4-0.1 1-0.5 1.9-0.1 0.2 0 2.9-0.4 4 0 0 0 1.3-0.4 1.7v0.3c-0.2 0.7-0.1 1.9-0.5 3.1-0.5 1.8-0.5 4.5-0.4 6.5 0 0.3-0.3 0.3-0.1 1.1 0.1 0.8 0.1 2.7 0.3 3.5 0.3 1.3-0.4 3-0.4 4.3 0 1 0.1 1.7-0.3 2.5-0.1 0.1 0 0.2 0 0.3-0.3 1.2-0.6 1.7-0.9 2.8-0.6 1.9-0.2 5.5 0.1 7.6 0 0.4-0.1 1.2 0.1 1.7 0.2 0.4 0.1 3.5-0.1 3.9 0 0 0 1 0 1.1 0.2 0.1-0.1 0.5 0 1 0 0.3-0.3 1.9-0.3 2.7 0 1.7 0.4 3 1 4.5 0.1 0.1 0.3 1.4 0.4 1.8 0.1 0.2 0.6 2.1 0.7 2.3 0.3 0.5 0.2 0.9 0.9 1.6 0.3 0.3 0.1 0.6 0.7 1.1 0.3 0.2 0.8 0.5 0.8 0.9 0.8 0.9 1 0.9 1.8 1.9 0.8 1 2.1 2.7 3.4 3.2 0.3 0.1 2.2 1 2.2 0.5 0-2-1.3-2.8-2.3-4.3-0.6-1-1.6-2.6-1.9-3.6-0.4-1.4-1.2-0.1-1.3-3.6 0-0.1 0.2-0.6 0.2-1.3q0-0.2 0-0.4c0-0.8 0.2-1.7 0.2-2.6 0-1.7-0.4-2.7-1.2-4.2-0.4-0.7-0.3-2.1 0.4-2.5 0.4-0.4 1-0.9 1.2 0.3 0.3 1.1 0.6 1.7 0.6 2.9 0 0.8 0.9 4.4 1.3 4.9 0.8 0.8 2 4.8 2.7 5.5 0.5 0.5 0.8 1.4 1.2 1.4 0.4 0.5 3.1 3.5 3.4 3.5 2.6 0.7 1.4 1.8 3.2 2.4 0.1 0.4 2.3 0.5 2.7 0.8 0.1 0.1 3.2 0 3.4-0.1 0.3-0.2 1.5-0.4 1.9-0.4 0.3-0.3 5.3-0.9 6-1 2.2-0.2 2.9-1.3 5.9-1.3 1.9 0 2-0.1 3.7-0.5 0.7-0.1 2.7 0 3.9-0.2 1.6-0.2 2.3 0.5 4.3 0 1.4-0.5 0.7-0.4-0.5-1.1-1.7-0.9-3.3-0.9-5-1.3-1.4-0.3-3.6-1.5-3.9-3-0.1-0.8-0.9-2.3-1.6-2.7-0.3-0.2-0.1-0.3-0.7-0.7-0.5-0.4-1.4-2.1-1.4-2.8 0.4 0 1 0.4 1 0.6 1.5-0.2 0.8 1.1 2.2 1.1 1.8 0 1.1 0.5 2.4 1.4 1.1 0.8 2 0.8 2.7 1.7 0.8 0.9 1.9 0.3 2.4 0.6 0.2 0.2 1.8 0 2.2 0 0.4-0.2 2.8 0.1 3.4 0.1 1.9 0 6 0.2 7.7-0.2 0.7-0.2 1.8 0 2.5 0.1 0.2 0.1 1.8 0.1 2.3 0.2 0.7 0.1 5.5 0.7 5.5-0.4 0-0.4-1.6-0.7-2.2-1.1-0.1-0.1-3.9-1.2-4.3-1.2-0.7 0-2.3 0.1-2.9-0.2-0.5-0.3-3.8 0.5-4.3 0.8-0.5 0.2-0.8-0.3-1.1-0.5-0.5 0.7-1.8-0.8-2-1.6 0-0.2-0.4-1.3-0.7-1.3-0.1-0.2-3.8-0.2-4.2-0.3-1.5-0.4-3-0.1-4.5-0.2-1.1-0.1-1.5-1-2.6-1.3 0 0-1-0.7-1.2-0.8-0.1 0-0.2-0.1-0.3-0.2-2.3-0.3-2.8-2.7-4.7-3.2-1.5-0.3-2.3-1.7-2.7-3.1-0.1-0.3-1.2-2.8-1.5-2.9-0.1-0.1-0.6-1.2-0.6-1.4 0-0.3 0-0.4 0-0.7-0.1-1.1-1.3-3.4-1.6-4.8-0.2-0.8-0.4-1.8-0.3-2.7-0.5-0.4-1-2.4-1-3.1 0-0.4-0.6-2.4-0.4-2.5 0.2-0.3-0.8-2.4 1.3-1.9 1.4 0.4 1.1 4.4 1.9 5.3 0.6 0.6 1.1 2.8 1.2 3.6 0 0.7 0.8 1.3 1.1 2.8 0.2 1.5 0.8 0.9 0.8 2.2-0.6 1.1 2.7 3.5 3.1 4.2 0.5 0.9 0.9 2.7 1.9 3.1 0.1 0.4 2.6 1.5 3.3 1.5 0.2 0 1.9 0.9 3.3 0.9 0.6 0 1.7-0.2 2.1 0.2 0.1 0 1.2 0.4 1.4 0.4 0.3 0 3 0.4 3.2 0.7 0 0 2.7 0.4 2.8 0.4 2.5 0 2.7 1.1 4.7 1 0.3 0 1.3 0.2 1.9 0.2 0.8 0 1.7-0.1 2.4 0.2 0.5 0.2 1.8 0.1 2.4 0.5 0.5 0.3 2.7 0 2.9 0.4 0.5-0.2 4 0.9 4.7 1.1 0.9 0.3 1.6 0.7 2.6 0.9 1 0.1 3.3 0.9 4.3 1.3 0.8 0.3 1 0 2.2 0.8 0.2 0.1 2.2 0.9 2.3 1 0.3-0.1 0.4 0.3 1.2 0.4 1.3 0.1 2.1 1.1 3.5 1.3 0.9 0.2 3.7 2.5 5.2 2.9 0.9 0.2 2.7 2.2 4 2.8 0.7 0.4 1.4 1.7 1.8 1.9 0.1 0 2.4 2 2.6 2 0.7 0.3 1.6 1.3 2.7 1.9 0.5 0.3 0.7 0.9 1.8 1.2 0.2 0.1 1.1 1 1.8 1.3 0.8 0.2 0.8 0.7 1.6 0.9 0.8 0.2 0.4 0.3 1.6 0.5 0.4 0 0.3 0.1 1 0.1 0.5 0 1.3 0.3 2.2 0.3 1.7 0 1.2 0 2.8-0.4 0.4-0.1 1.3-0.2 1.5-0.5 1-0.4 2.4-2.6 2.4-3.9 0-2.5 0.3-1.5-1-3.3-0.3-0.3-0.9-2.5-1.5-3.4-0.1-0.2-0.3-0.6-0.3-0.8-0.8-1.2-0.7-2.2-1.9-3.5-0.6-0.6-2.6-3.3-2.5-4 0-0.5-0.7-3-1.4-3.4-1-0.2-0.4-0.9-0.9-1.4-0.2-0.1-0.8-1.5-0.8-1.7 0-0.4 0.1-2.4-0.2-2.5-0.5-0.9-0.3-2-0.3-2.9-0.4 0-0.1-0.1-0.1-1 0-2.5-2.4-1.3-2.1-5.3 0-0.5 0.3-0.8 0.1-1.6-0.4-1.1 0.9-1-0.5-4.1-0.5-1.1-0.1-0.8-1.7-1.1-0.3-0.1-0.3-0.3-0.6-0.3 0.2-0.7-1-1.4-1.3-2.5-0.6-1.6-0.8-1.6-0.9-3.5 0-0.6-0.5-2.2-0.5-3.2 0-1.6-0.3-4.4 0.2-5.9-0.3-1.3 0.2-4.9-0.2-5.8-0.4-0.9-1-3.2-1.4-3.8-0.5-0.6-0.3-1.5-0.9-2.5-0.8-1.4 0.8-1.4 1.8-1.4 2.4 0 2 0.6 4.9-0.2 1.6-0.4 1.6 0.1 3.4-1.1 0.5-0.3 0.2-0.5 0.8-0.6-0.3-0.2-3.9-0.8-4.4-0.8-2.3 0-4.1-1.3-5-1.2-0.4 0.1-1.6-1.1-1.5 0.8 0 0.7-1.9 1.6-1.8-0.7 0-0.4-0.4-0.4-0.4-0.6-0.7-0.4-1.3-1.5-2-2.1-1.4-1.6-0.6-1.6-2.9-2.8-0.6-0.4-0.5-0.2-1.2-0.8-0.2-0.1-0.9-0.5-1.2-0.5-0.3-0.6-4.5-2.6-5.4-3.7-0.8-1-2.5-1.4-2.7-2.8-0.1-0.4-1.3-1.9-1.9-2.1-0.3-0.1-1.3-1.1-1.3-1.1-0.1-0.3-0.5 0.1-0.9-0.7-0.2-0.2-1.2-0.8-1.4-1.6-0.2-0.5-1.2-3.3-1.5-3.6-0.8-0.7-1-1.5-2.2-2-0.3-0.1-3-1.8-3-1.8-0.1-0.4-1.5-0.8-1.5-1.1-0.7 0-1.8-2.1-1.8-3 0-1.1-1.8-5.1-2.8-5.3 0-0.1-1-0.8-1.1-1-0.2-0.2-0.7-0.8-1-1-2.2-2.6-2.2-1.1-4.2-2.7-1.4-1.1-2.3-2-2.6-3.8-0.4-2.4-2.5-4.4-2.5-6.9-0.5-0.4-0.3-1.2-1.1-1.6-0.1-0.1-2.1-3.2-2.2-3.4-0.2-1.3-0.6-3.7-1.9-4.3-0.9 0.4-1.5 2.6-1.3 3.5 0.4 2.1 0.5 1.8 0.5 4.1 0 0.9-0.4 2.9-0.1 3.8 0.2 0.8 0.5 5.2 0 5.8-0.1 0.2 0.2 3-0.5 4.4-0.5 0.8-0.5 2.2-0.5 3.1v-0.2c0 2-0.9 4.1-1.3 6.2-0.5 2.4-0.1 3.4-0.2 5.6 0 0.5-0.1 0.7-0.1 1.5 0 1.3-0.2 3.6 0.1 4.8 0.2 0.8 0.5 3.7 0.9 4 1.1 1-0.5 3.4 0.6 4.1 0.3 0.2 1.4 1.6 1.4 2 0 0.6-0.2 1.8-0.5 2.3-0.2 0.3-0.2 1.1-0.1 1.5 0.1 0.3 0.2 1.5 0 1.6-0.4 0.3-1.6 2.2-1.8-0.7-0.1-0.8-1.7-3.1-2.5-3.4-0.5-0.2-0.8-0.6-1.9-1-1.5-0.4-1.6 0.4-2.6-0.8-0.5-0.5-2.6 0.2-3 0.6-0.4 0.4-2.4 0.4-2.9 0.2-1.6-0.8-2.8 0.2-3.2-0.1-0.5-0.5 0.5-2.9 0.5-4 0-0.5 0-0.5 0.2-1-0.2-1 1.7-4.9 0.4-6.3-0.3-0.4-0.1-1.5-0.7-2.2-0.1-0.1-0.2-0.8 0.1-1 0.2-0.1 1.1-1.6 1.1-1.6 0-1.1 0.1-1.5-0.5-2.4-0.2-0.4-0.3-1.5-0.4-1.8-0.1-0.9 0.2-0.7-0.5-1zm58.6 81c0.4 0.9 0.6 2 1.4 2.4 0.7 0.3 0.3 3.4 0.2 3.4-0.4 0.4-1.6-0.9-1.8-1.4-0.4-0.8-0.9-1.8-0.9-2.7-0.1-0.9-1.9-4-2.5-4.6-0.8-0.7-0.7-2.1-1.6-2.9-0.9-0.7-0.8-2.3-1.6-2.9-0.4-0.5-1.1-2-1.5-2.2-0.8-0.2-2.1-1.4-2.7-1.8-0.7-0.3-0.8-0.7-0.9-0.7-1.2-0.7-1.4-1.3-2.1-1.7-0.6-0.4-1.5-2.2-2-2.4-0.6-0.2-0.5-0.5-0.9-1-0.8-1-1-1.9-2.1-2.3-0.5 0.3-0.9-0.4-1.3-0.5-0.7-0.1-0.6-0.3-1-0.7-0.9-0.9-1.4-2.4-2.5-3.4-1.1-1.1-1-1.5-1.6-2.2-2-2.2-1.5-3.5-2.3-4.6-0.7-0.9-0.6-1.2-1-2-0.7-1.5-1.3-3.1-2-4.6-0.7-0.7-0.9-2.3-1.2-2.7-1.3-2.3-2.5-5.6-3.4-8.2-0.8-2.3 0.2-6.2-0.9-8.1-0.8-1.5-1.6-5.5-1.6-7.2q0 0.2 0 0.3c0-2.9-0.1-1.3 1.2-1.9 0 0-0.1-4.4-0.1-4.9 0-0.9-0.1-2.6-0.4-3.2-0.9-2.2-0.2-3.1-0.7-4.7-0.2-0.8-0.4-4.1-0.4-5 0-0.9-0.5-9.1 0.4-9.2 0.4-0.6 0.7-0.9 0.8 0.2 0.1 0.4 0 3.2 0.7 3.4 0.6 0.2 0 3.7 0.9 5.3 0.1 0.2 1.1 4.8 1.1 5.3 0 0.7 0.2 0.8 0.2 1.7 0 0.5-0.1 1.7 0.2 2.1 0.1 0.2-0.2 1 0.1 1.6 0.2 0.3 0.4 1.4 0.4 1.8v-0.1c-0.1 0.9 0.6 3.9 1.1 4.8 0.2 0.4 0.5 4 0.7 4.2 0.7 1.3 1-1.2 1.4-1.7 0.7-1 1.5-0.6 1.8 0.5 0.2 0.9 1.8 3.7 1.9 4.2 0 1.5-0.5 1.7 0.4 3.1 0.7 1 0.5 2.5 1.3 2.8 0.5 0.2 0 0.5 0.8 0.5 0.6-0.1 1.3 0 1.3 0.7 0.2 0.3 0.8 2.9 1.4 3.6 0.5 0.7 1 3.4 1.5 4.5 0.3 0.9 0.8 2.9 1.3 3.8 0.4 0.7 0.4 1.7 0.7 2.2 0.7 1 0.7 2.8 1.7 4.3 0.4 0.6 1.7 5.3 2.2 6.4 0.2 0.6 0.8 1.8 1.1 2.4 0.7 1.6 0.3 1.1 1.6 2.1 0.3 0.2 0.8 1.1 1 1.2 0.5 0.3 2.8 3.2 3.3 3.8 1.2 1.3 1.7 1.2 2.2 3.1 0.2 0.8 0.7 2.5 0.7 3.3 0 0.1 0 0.2 0.2 0.2 0.2 1.2 1 2.3 1.3 4 0.4 1.9 0.9 3.9 1.9 5.6 0.2 0.4 0.5 2.2 0.6 2.7zm-9.2-62.4c0 0.3 0.6 1.1 0.6 1.7 0.6 0.4 0.2 0.3 0.9-0.1 1.4 0.7 2.3 4.3 2.9 4.3 1.1 0.1 0.7 1.6 1.6 1.5 0.4-0.1-0.4-1.1 1-0.4 0.2 0.1 0.4 0.8 0.4 1.2q0 0.7 0 1.4c0.6 1.6 0.8 1.2 2.2 1.9 0.6 0.3 1.4 1.7 1.3 2.2 0.4 0.9 0.7 1.9 0.7 2.9 0 1.3 0.2 2.6 0.2 3.7 0 1.6 0.4 2.1 0.5 3 0 0.5-0.1 0.9-0.1 1.4 0 0.8 0.4 3.5 0.9 4.1 0.7 1 0.6 1.5 0.9 1.9 0.4 0.9 0.8 3.2 0.8 4.1 0 0 0.3 3.7 0.4 3.9l0.1 0.1c0.1 0.2 0.2 1.6 0.1 1.9-0.1 0.2 0 1.8 0.1 2 0.3 0.7-0.1 3.9 0.1 4.9 0.4 1.8 0.1 3.8 0.3 4.8 0.2 1.1 0.3 3.2 0.3 4.3 0 1.2 0.4 2.2 0.5 3 0.2 2.2 0.8 4.4 1.3 6.5 0.1 0.4 2.4 6.5 2.5 6.7 0.3 0.4 0.4 2.6-0.1 2.9-0.8 0.5-2.2-1.7-2.5-2.3-0.1-0.2-1-1.2-1.1-1.4-1.2-1.1-0.6-0.6-1.3-1.7-0.6-0.8-0.5-1.1-0.7-1.5-0.5-0.7-0.8-1.9-1.3-2.5-0.7-0.8 0.3-0.9-0.9-2.6-1-1.3-0.3-1.5-0.9-3-0.6-1.3-1-4.3-1.9-4.9-0.3-1.5-2-3.5-2.2-4.5-0.1-0.2-0.7-1.5-0.7-1.9 0-0.1-0.3-1.4-0.3-2.1 0-2-0.1-3.9-0.5-5.8-0.3-1.2-0.9-3.3-1.5-4.3-0.6-1 0-2-1.3-3.4-0.4-0.4-1.9-1.4-1.9-1.7v-0.2c-0.9-0.2-2.1-4.3-2.7-5-0.5-0.6-1.9-1.5-2-2.3 0-0.1-0.7-1.3-0.9-2-0.2-0.8-0.2-0.8-0.3-1.5-0.1-0.7-0.8-1.6-1-2.8-0.1-0.2-0.1-0.1-0.2-0.3-0.5-1.7-1.7-4.2-1.8-5.8-0.2-1.6-0.8-2.4-0.8-4-0.1-0.3-0.2-0.7-0.2-1.1 0 0-0.3-1.1-0.4-1.4-0.6-1.5-0.7-1.7-0.9-3.3-0.1-0.2-0.3-1-0.3-1.4 0.1-1.3 0.1-5.2-0.2-6.2-0.1-0.3 0-0.3 0-0.6-0.9-1-0.6-4.2-1.1-5.4-0.2-0.3 0.3-3.5-0.1-4.2-0.4-0.7 0.9-1.8 1.6 1 0.4 1.5 0.3 1.8 1.2 3.2 0.7 1.2 0.8 1.9 2.2 2.5 0.1 0.8 0.2 1.4 0.6 2.2 0.3 0.5 0.1 2 0.7 2.1 0.1 0.5 1.5 3.3 1.8 3.7 0.5 0.5 0.6 1.4 1.1 1.8 0.4 0.4 1-1.4 1-1.8 0-0.5 1.3 0.1 1.3 0.6zm-16.2-73.8c-0.2-0.4-0.3-1.4-0.7-1.6-0.2-0.9-2.2 1-2.4 1.2-0.6 0.8-2.3-0.1-2.8 1.2-0.3 0.8-1.9-0.2-1.9-1.9 0-1.5-0.4-2.2 0.8-3.2 0.2-0.1 0.1-0.9-0.6-1.1-1.5-0.5-2.8-1.5-4.4-0.5-0.8 0.5-1.3 1.3-1.7 2.2-0.3 0.6 1.4 0.2-0.2 3.1-0.4 0.8 0 2.5 0 3.7-0.1 0.4 0.4 1.9 0.4 2.8 0 0.2 0.3 1.1 0.2 1.8 0 0.2 0.4 1.1 0.9 0.6 1.5 0.2 1.9 3.8 0.5 2.9-0.7-0.4-0.7-0.4-0.9 0.6-0.3 1.1-1.3-1.1-1.3-2.2 0-0.3-1.1-5.1-1.2-5.2 0 0-0.2-1.3-0.3-1.6-0.5-0.7 0-5.2 0-5.2-1.4-0.3-0.8 0.6-2 1.2-0.1 0-1.9 1.9-1 2.2 1.2 0.4 0.2 1.9 0.2 2.4 0 0.1-0.2 0.3-0.1 1.1 0.3 1-0.1 1.6 0.5 2.7 0.2 0.2 0.3 6-0.4 3.6-0.1-0.4-0.5-1.3-0.6-1.8 0-0.5-0.1-1.8-0.3-2.1-0.2-0.4 0-2.5-0.3-2.9-0.3-0.4 0.3-1.2-0.3-1.5-1.6-0.8-1.9 2.3-1.9 3.2 0 0.6 0 2.2 0.2 2.7 0.2 0.4-0.3 5.2 0.3 6.8 0.3 0.9 0.3 2.9 0.6 3.6 0.3 0.7-0.1 1.5 1 3.2 0.5 0.8 0.9 0.1 1.6 0.5 0.5 0.4 1.1-0.3 1.7-0.3 0.8 0 0.9 0 1.4-0.8 0.8-1 0-1.5 0.6-2.8 0 0 0.8-0.4 1.2 0.2 0.3 0.3 1.2 1 1.7 1 1.3 0 2.2 1.1 4.2 0.6 0 0 2.1-1.4 3-1.6 0 0 1.2-0.6 1.5-0.7 0.7-0.2 2.3-3.2 1.2-3.4-0.5-0.1-2.3-1-2.5-1.5-0.2-0.5-1.5-1.4-1.5-2.6 0-0.3-0.5-1.5-0.5-2.1 0-0.5-0.2-3.9-0.2-4 0.2-0.6-0.2-1.1 0.3-1.5 0.3-0.2 0.6-1.1 1.2-0.6 0.5 0.3 0.3 1.5 0.3 2.2 0 1.6-0.4 5.1 0.6 6.1 0.2 0.2 0.7 1.4 1.2 1.6 0.2 0.1 0.1 0.7 1.5 1 0.5 0.1 1.3 0.1 1.7-0.1 0.6-0.4 1.1-0.7 1.8-0.8 0.6-0.1 1.2-0.8 2.4-1 0.2 0 0.2-0.2 0.2-0.3-0.9-0.5-1.1-0.5-1.9-0.9-0.5-0.3-1.7-1.1-1.9-1.6-0.2-0.7-1.2-1.3-1.2-2.4 0-0.2-0.1-0.1-0.1-0.8 0-1.3-0.9-2.5-0.3-3.7 0.1-0.2 0.5-1.5 0.5-1.7zm59.6 37.6l-54-27.6c-0.1-0.1-0.1-0.2-0.4-0.2-0.3 0.1-1.1-0.6-1.3-0.7-1.2-0.4-1.2-1.8-1.2-2.9 0-1.7 0.2-1.2 0.4-2.3l36.8 17.5 26.5 13.5c0.4 1 0.7 1.1 0.6 2.3-0.1 1.1-1.3 1.6-2.2 1.3-0.8-0.2-1.3 0.3-3-0.4-0.4-0.2-2-0.4-2.2-0.5zm-26.6-12c0.6 0.2 1.2 1.3 2.2 1.4 0.5 0 2.7 1.3 1.7 1.7-0.2 0.1-0.6 0.5-1.1 0.5-1.3 0-3 2.1-3 3.3 0.1 1.6-1.3 2.7-1.7 4.3-0.1 0.4-0.9 2.2-1.2 2.5-0.7 0.9-0.7 1.1-1.1 2 0 0.1-1.2 1.7-1.4 2.2-0.1 0.3-1 1.5-1.2 2.2 0 0.2-0.9 1.3-1.1 1.4-0.3 0.2-0.9 1-1.9 1.5-1.7 0.8-1.1 1.6-3.7 2.5-1 0.4-1 0.4-0.5-0.9 0.6-1.7 4.1-4.6 5.3-6.7 0.3-0.5 0.4-0.2 0.8-1.2 0.4-1.1 2.1-2.4 2.8-4.5 0.6-2 1.6-1.5 1.8-3.6 0.1-0.6 0.9-1.8 0.9-2.7-0.1-0.7 0.8-2 0.7-3 0-1 1.1-1.6 1.2-2.4 0.1-0.4 0.5-0.5 0.5-0.5zm-51.8-28.5l-6.5-3.4c0.6-1.5 1.7-3 3.6-3 0.5 0 1.1 0.2 1.4 0.5 0.1 0.1 3.3 2.1 3.4 2.1 0.7 0.1 1.3 0.8 1.8 0.6 0.4-1.5-1.4-1.6-2.5-2.5-0.8-0.7-1-0.5-2.2-1.4 2.6 0 3.8 1.5 5.7 1.5 1.7 0 1.8 1.2 1.5 1.3-0.2 0.7-1.3 0.6-2 1.8-0.2 0.2-2.8 0.9-4.2 2.5zm-6.6 1.8c0.3-0.2 0.2-0.1 1.2-0.1 0.7 0 1 0.1 1.9 0.1 1 0 1.6-0.3 2.2 0.2q-0.1 0.3-0.2 0.6c-0.1 0.9-3.2 3.6-3.2 5.4 0 0.6-0.5 4.2-0.7 4.3-1.9 1.2-0.8 1.8-3.9 2.3-0.7 0.1-1.9 1.4-3.8 1.3-0.1 0-1.3 1-2.5 1.1-1 0.1-1.8 0.5-2.5-0.5-0.3-0.4-1.5-0.9-2-1.4-1-1.3-2.3-2.1-3.1-3.4-0.2-0.4-0.6-0.6-0.9-1.4-0.3-0.8-0.9-0.8-0.8-2.5 0-0.6-0.7-1.4-0.2-3.5 1.4-5 3.2-8.6 6-12.1 0.5-0.2 2.9-4.1 3-4.3 0.7-0.1 1-4.1 5.6-2.6 0.1 0 1.2 0.8 2.2 1.1 1.2 0.3 0.6 1 2.7 0.9 0.5 0 1 0.4 2.3 0.4 1.5-0.1 4 0.2 5.2 0.8 0.4 0.3 2 0.2 2.2 1 0.2 0 0.8 1.6 0.7 2.1 0.2 0.1 1.2 2.4-0.6 0.9-0.8-0.8-4.2-2.2-5.4-2.2-3.8 0-1.3-1.7-3.2-1.7-0.2 0-0.8 2.7-1.7 3-0.3 1.2-2.4 2.1-3.8 1.2-0.7-0.5-1.7-0.7-2.6-0.6-0.4 2.4 0.6 2.7 2.3 4 0.6 0.5 0.5 5.5-0.1 6.1-0.5 0.6 0 4.5-0.8 5.1-0.2 0.1-0.2 0.8-1.1 1.7-0.8 0.6-0.1 2.1-2.7 3.6-3.7 2.3 2.1 0.4 2.1 0.4 1.3-1.1 3.1-2.1 3.4-3.8 0.2-0.7 1.4-0.9 2.1-0.1 0 0.1 1.3 0.6 1.3 0.2 0-0.9 0-1.4-0.8-1.9-0.9-0.5 0.2-4.5 0.2-5.7zm0.2-18.8c-0.7-0.6-0.1-8-3.1-10.5-0.2-0.6-1.2-0.7 0.5-1.3 0.6-0.2-0.2-1 0.6-1.4 0.8-0.4 0.2-1.1 2.1-1.5 0.6-0.1 0.4-0.8 2-0.7 1 0 1.7-1.3 2.9-1.3 0.5 0 2-1.4 2.5-0.7 1.4-0.1 1.2 0.2 2.8-0.4 0.5-0.3 1.1 0.2 1.8 0.2 0 0 2.1 0.3 2.2 0.4 0.3 0.3-1.4 0.5-1.4 0.6-0.3 0.3-0.8-0.2-1.5 0.9-0.1 0-3.5 1-3.5 1-0.3 0.4 0 0.6-1.2 0.6-0.8 0-3.6 0.9-3.7 1.6-3.6 3.3-1.2 9-0.8 14-0.1 0.9-1.6-0.4-2.2-1.5z"/>
			<path id="&lt;Compound Path&gt;" fill-rule="evenodd" class="s0" d="m455.4 664.6l19.2 6.7 0.4-1-16.4-11.8 4-7.7 5.4 2.8-1.5 2.7 19.1 14.3q1.9-2 4.3-2.4 2.5-0.4 5.2 1.1 3.4 1.7 4.3 4.7 0.9 2.9-0.8 6.2l-2 3.9q-1.7 3.3-4.7 4.3-2.9 0.9-6.3-0.8-3.4-1.8-4.3-4.8-0.9-2.9 0.8-6.2l0.5-0.9-2.6-1.8-2.4 4.7-25.3-8.1zm33 17.6q2.1 1.2 3.5-1.6l1.2-2.2q1.4-2.7-0.7-3.8-2.1-1.1-3.6 1.6l-1.1 2.2q-1.4 2.7 0.7 3.8zm-16.8 31.7l-13.4-7.2q-6.3-3.3-7.3-8.2-1-4.8 2-9.9l-3.5-2.1-6.2 10.5-5.2-3.1 9.6-16.1 33.6 20 2-3.3 12.1 8.2-3.4 5.7-7-4.9-6.9 11.5 7.6 3.9-3.3 5.5-13-6.6zm3.3-5.5l2.9-4.9-19.7-11.8q-3.6 5.9 3.3 9.5zm-44.1 11.1q-4-3-4.6-6.7-0.7-3.7 2.4-7.7 3.1-3.9 6.9-4.1 3.8-0.3 7.5 2.8l20 16.6q3.3 2.9 3.9 6.2 0.6 3.3-2.1 6.7-2.8 3.6-6.2 3.8-3.4 0.3-6.9-2.3zm24.2 9.8q1.8 1.3 3 1.4 1.1 0.1 2-1 0.9-1.2 0.5-2.2-0.4-1.1-2.1-2.6l-18.7-15.4q-2.1-1.6-3.6-1.9-1.5-0.2-2.7 1.3-1.2 1.5-0.6 2.9 0.6 1.5 2.7 3.1zm-48.2 0.3l12.8-13.3 9.3 8.8-4.6 4.7-4.8-4.7-3.8 4 28.2 27.1-4.5 4.7zm-20.7 29.4q-1.5-2.1-1.8-4.5-0.2-2.5 0.9-4.9 1.1-2.4 3.5-4.1 3.6-2.5 7.5-1.6 3.8 0.9 6.7 5 1.9 2.7 2.4 5.3 0.5 2.6 0.2 4.7-0.4 2-1.1 4.8l-0.4 1.2q-0.9 2.9-0.5 4.8 0.4 1.9 2.2 4.5l3.7 5.1 3.8-2.8-5.1-7.2 5.4-3.7 8.5 12.1-14.5 10.3-7.7-11q-2.5-3.5-2.7-6.7-0.1-3.1 1.3-7.4 1.8-6.2-0.5-9.8-1.4-2.2-2.8-3-1.3-0.8-2.9 0.4-1.3 0.9-1.3 2.5 0.1 1.5 1.3 3l1.5 2-5.4 3.9zm-21.8 13q-1.3-2.2-1.2-4.7 0-2.5 1.4-4.7 1.4-2.3 4-3.7 3.8-2.1 7.5-0.8 3.8 1.4 6.2 5.8 1.6 2.9 1.7 5.5 0.2 2.7-0.3 4.7-0.6 2-1.7 4.6l-0.5 1.2q-1.2 2.8-1 4.7 0.1 1.9 1.7 4.7l3 5.5 4.1-2.3-4.2-7.7 5.7-3.1 7.2 13-15.6 8.6-6.5-11.8q-2.1-3.8-1.8-7 0.2-3.1 2.1-7.2 2.5-6 0.6-9.8-1.1-2.4-2.4-3.3-1.2-0.9-2.9 0-1.5 0.8-1.6 2.4-0.2 1.6 0.9 3.1l1.3 2.2-5.8 3.2zm-21.8 10.5q-2-4.4-0.7-8 1.4-3.6 5.8-5.3 4.5-1.8 7.8-0.1 3.4 1.7 5.1 6.3l8.8 24.4q1.5 4.1 0.3 7.2-1.2 3.2-5.1 4.8-3.9 1.5-6.8 0-3-1.5-4.7-5.5zm15.9 20.6q0.8 1.9 1.8 2.7 1 0.7 2.1 0.3 1-0.4 1.2-1.7 0.2-1.2-0.4-3.1l-8.3-22.7q-0.9-2.5-2.2-3.5-1.3-1-2.7-0.4-1.5 0.6-1.8 2.2-0.2 1.7 0.8 4zm-39.1-16q-0.6-2.5 0.2-4.8 0.8-2.4 2.8-4.1 2-1.7 4.8-2.3 4.4-0.9 7.5 1.5 3.1 2.4 4.1 7.3 0.7 3.2 0.1 5.8-0.6 2.6-1.7 4.4-1.2 1.7-3 3.9l-0.9 1q-1.9 2.3-2.3 4.2-0.4 1.8 0.2 5l1.3 6.1 4.6-1-1.7-8.6 6.4-1.3 2.9 14.6-17.4 3.5-2.7-13.1q-0.8-4.3 0.3-7.2 1.2-3 4.2-6.4 4.1-4.9 3.5-9.1-0.4-2.6-1.3-3.8-1-1.3-2.9-0.9-1.6 0.3-2.2 1.8-0.6 1.4-0.1 3.3l0.7 2.4-6.5 1.4zm-32.7-7.9l19.4 0.8-0.2 4.2q-0.4 9.7-4.3 14.1 3.3 3.3 3.1 9l-0.1 1.3-1.7 16.5-18.2-0.8zm5.8 16.6q2.7 0.2 4.7-2.3 2-2.4 2.2-6.9v-0.8l-6.4-0.2zm4.6 23l1.1-10.5q0.5-4.9-2.1-6.8-1.7 0.4-3.9 0.3l-0.7 16.7zm-47.2-35.4q0.9-4.9 4-7.1 3.1-2.2 8-1.1 4.8 1 6.7 4.3 1.9 3.3 0.7 8.1l-6.2 25.1q-1.2 4.2-3.8 6.2-2.7 2-7.1 1.1-4.4-1-6.1-3.9-1.7-2.9-0.9-7.2zm1.8 26q-0.4 2.2 0 3.3 0.4 1.1 1.8 1.4 1.4 0.3 2.2-0.6 0.8-0.8 1.4-2.9l5.7-23.5q0.6-2.7 0.1-4.2-0.4-1.4-2.3-1.8-1.8-0.4-2.9 0.8-1 1.1-1.6 3.7zm-17.9-44.3l5.9 2.7-6.9 14.8 5.8 2.7 6.9-14.8 5.9 2.8-19.1 40.9-5.9-2.7 9.6-20.7-5.8-2.7-9.6 20.7-5.9-2.8zm-33.8 7.5q3.6-6.1 8.5-6.8 4.9-0.8 9.8 2.4l2.3-3.3-10.2-6.7 3.4-5.1 15.5 10.3-24.9 37.7-5.5-3.6 8.2-12.3-5.1-3.3-7.6 12.6-5.4-3.6zm5.1 4l5.4 3.6 4.5-6.9q-2.7-1.8-5.1-1.2-2.4 0.5-4.5 4.1zm-10.5-38.6l14.8 12.8-2.8 3.2q-6.3 7.3-12.1 8.3 0.5 4.7-3.2 9l-0.9 0.9-11.6 11.9-13.7-11.9zm-5.8 16.7q2 1.7 5.1 1.1 3.1-0.7 6-4.1l0.5-0.6-4.8-4.2zm-10.7 20.9l7.3-7.5q3.5-3.6 2.6-6.6-1.6-0.8-3.2-2.2l-10.9 12.6zm-10.4-48.9q3.4-3.6 7.2-3.7 3.8-0.1 7.3 3.4 3.5 3.6 3.2 7.4-0.2 3.8-3.8 7.1l-19.1 17.6q-3.3 2.8-6.7 3-3.3 0.2-6.4-3-3.1-3.2-2.9-6.6 0.2-3.4 3.2-6.5zm-12.9 22.6q-1.5 1.7-1.8 2.8-0.2 1.1 0.8 2.1 1 1.1 2.1 0.8 1.1-0.3 2.7-1.7l17.8-16.5q1.9-1.9 2.4-3.3 0.4-1.5-0.9-2.9-1.3-1.3-2.9-0.9-1.5 0.4-3.4 2.3zm4.9-49.4l4 5.2-13.1 9.8 3.8 5.1 13.1-9.8 3.9 5.2-36.1 27.2-3.9-5.2 18.2-13.7-3.8-5.1-18.3 13.7-3.9-5.2zm-24.3-17.8q3.9-2.9 7.7-2.5 3.7 0.4 6.6 4.4 2.7 3.9 1.9 7.6-0.8 3.7-4.9 6.5l-2.1 1.4-3.8-5.3 1.4-1q2.1-1.5 2.8-2.9 0.7-1.4-0.2-2.8-1.1-1.4-2.7-1.3-1.5 0.2-3.7 1.8l-19.3 14.5q-1.7 1.4-2.1 2.4-0.5 1.1 0.3 2.2 0.7 1.1 1.9 1 1.1-0.1 3-1.3l7.6-5 3.8 5.3-8.4 5.5q-3.7 2.3-7 1.9-3.3-0.3-5.9-3.9-2.5-3.5-1.8-6.8 0.7-3.4 4.2-6zm-13.1-22.4q4.3-2.4 8-1.5 3.7 0.8 6.1 5.2 2.3 4.4 1.1 8-1.3 3.6-5.7 5.8l-23.1 11.7q-3.9 1.9-7.2 1.1-3.3-0.7-5.4-4.6-2.1-4-1-7.2 1.1-3.2 4.9-5.4zm-18.6 18.3q-1.9 1.2-2.5 2.2-0.5 1 0.2 2.3 0.6 1.2 1.8 1.3 1.1 0 3.1-0.9l21.5-11q2.4-1.3 3.3-2.6 0.8-1.3-0.1-3-0.9-1.6-2.5-1.7-1.6 0-3.9 1.3z"/>
			<path id="&lt;Compound Path&gt;" fill-rule="evenodd" class="s0" d="m542.2 436.4c20.4 7.2 0.1 29 12.5 25.7 5.3-1.4-1.4 5.8-0.3 12.9-3.8-4.1-3.5-14.9-12.5-12.1-3.5-3.9 8.8-5.9 6.3-13.8-7.1 9.2-16.6 1-25.6 3.9-4 1.4-5.8 5.5-0.9 9.7-7.4-1 1.5 6.1 1.9 8.8-8.4-2.7-0.5 10.6-12.6 11.3 10.6-6.1-9.2-32.9 19.9-34.4-2.9-2.5-2.8-5.4-1.3-8.7l5.2-0.4c-5.5 11 8.9 12.6 10 6.1 1-5.8-11.7-8.3-17.8-5.4 0.4-4.3 8-6.1 15.2-3.6zm-10.1-1.3c8-12.7 15-21.2-2.9-33.8-1.6 3.9-6.9-2.7-5.6-5.2 2.7 3.5 14.8 6.5 19.6 17.4 3.3 7.2-1.8 14.9-5.8 21.4zm24.3 83.4c1.7-2.5 3.2-4.9 4.4-7.5 0.3 3.9 0.1 7.5-0.3 10-3.3 20.4-34.5 24.7-47.2 34-8.5 6.2-7.6 17.5-4.1 26 1.5 3.9 3.4 8.6 4.6 13.7-0.1 1.2-1.6 2.5-2.5 3.4q-0.6-3.9-2.2-8c0.2 2.6-2.6 4.7-5.1 4.1-0.5-4.2-5.4 2.8-8.5-2.7 9.8-2.9 10-9 8-15.6-0.5 5.4-6.3 7.2-7.2 5.4 5.1-2.2-2.5-20.6 13.4-28.1 18-8.5 43.1-17.7 46.7-34.7zm-50.8 36.5c-10.9-10.5 6.9-26-0.1-33.6 11.3 4.2 0 14.7 8.8 14.5-1.2 2.4-11.7 6.7-4.3 7.9-5.9 2.7-5.3 7.2-1.8 9.5zm11.6 19.9c2 7.4 4.7 16.2-0.4 22.2-7.8 9-20.2 8.6-23.8 11.1-0.5-2.7 6.5-7.5 6.9-3.3 20.7-7.1 16.4-17.2 12.3-31.7zm6.9-121.3q-0.2-0.2-0.4-0.4l4.3-0.3c9.6 12.4 38.3 25.3 35.7 45.8-0.8 6-4.1 17.2-12 23.6-5.5-5.3-12.3-6.5-18.4-4.6-18.5 5.9-1.3 25.4-23 32.2 12.9-8.8 9.5-15.6 3.1-16.9-3.7-7.3 29.6-29.6 38.7-18.5 20.7-22.9-9.1-44.1-28-60.9zm-3.3-3.6c-7.6-11.2 2.1-24-1.7-27.2 1.3-1.5 6.4 1.9 5.4 7.2 3.8-5.7 5.3-11.7-3.2-17.2 4.5-4.5 7.2 3.6 8.8-0.3 2.6 0.2 4.7 3 3.7 5.4q2.7-3.4 4.4-7c0.7 1.1 1.7 2.8 1.5 4-2.6 4.5-5.8 8.5-8.3 11.8-4.8 6-8.4 14.3-5.8 21.8zm18.9-42.8c3.3-10 0.7-20.2-8.3-30.5-3.9 3-5-2.7-4.6-4.8 17.9 12.2 20.6 25.5 15.2 38.2zm-31.1 159.9c5.1 4.6 18 5.7 18.6-0.2 0.8-6.5-13.4-9-11.3 3.1l-4.9-1.8c-0.5-3.6 0.3-6.4 3.7-8q-2.3-0.8-4.1-1.8l2.9-2.8c8.4 1.8 14.9 0.6 18 8.7 4.7-6.8-6.6-12.2-2.1-15 7.9 5.3 10.6-5.2 15.4-8-3.1 6.5 1.3 15.3-3.3 12.4-11-6.7 2.3 20-19.3 21.1-7.6 0.4-14.4-3.4-13.6-7.7zm47.2-58.9q-0.7-2.7-2.1-5.6c-11.8 8.2-37.5-22.7-31.8-28.6 6.4 0.6 11.6-5 1.7-17.1 19 12.7-3.1 26.5 13.1 37.4 5.2 3.5 12.2 4.3 18.9 0.8 1.1 1.6 2 3.3 2.7 5.1-0.4 2.8-1.1 5.4-2.5 8zm-41.1 91.8c1.6 13.7-4.7 25.7-25.4 32.4 0.2-2.2 2.9-7.3 5.8-3.3 11.5-7.4 16.9-16.4 16.5-26.9z"/>
			<path id="&lt;Compound Path&gt;" fill-rule="evenodd" class="s0" d="m63.7 440c-6.1-2.9-18.8-0.4-17.8 5.4 1.1 6.5 15.5 4.9 10-6.1l5.2 0.4c1.5 3.3 1.6 6.2-1.3 8.7 29.1 1.5 9.3 28.3 19.9 34.4-12.1-0.7-4.2-14-12.6-11.3 0.4-2.7 9.3-9.8 1.9-8.8 4.9-4.2 3.1-8.3-0.9-9.7-9-2.9-18.5 5.3-25.6-3.9-2.5 7.9 9.8 9.9 6.3 13.8-9-2.8-8.7 8-12.5 12.1 1.1-7.1-5.6-14.3-0.3-12.9 12.4 3.3-7.9-18.5 12.5-25.7 7.2-2.5 14.8-0.7 15.2 3.6zm-10.4-5.1c-4-6.5-9.1-14.2-5.8-21.4 4.8-10.9 16.9-13.9 19.6-17.4 1.3 2.5-4 9.1-5.6 5.2-17.9 12.6-11 21.1-2.9 33.8zm27.7 118.4c15.9 7.5 8.3 25.9 13.4 28.1-0.9 1.8-6.7 0-7.2-5.3-2 6.5-1.8 12.6 8 15.5-3.1 5.6-8-1.4-8.5 2.8-2.5 0.6-5.3-1.6-5.1-4.2q-1.6 4.1-2.2 8c-0.9-0.8-2.4-2.2-2.5-3.4 1.2-5.1 3.1-9.8 4.6-13.6 3.5-8.6 4.4-19.9-4.1-26.1-12.7-9.3-43.9-13.6-47.2-34-0.4-2.5-0.6-6.1-0.3-10 1.2 2.6 2.7 5.1 4.4 7.5 3.6 17.1 28.7 26.2 46.7 34.7zm1.5 0.2c3.5-2.4 4.1-6.9-1.8-9.6 7.4-1.2-3.1-5.4-4.3-7.9 8.8 0.2-2.5-10.3 8.8-14.4-7 7.5 10.8 23-0.1 33.5zm-4 19.8c-4.1 14.6-8.4 24.7 12.3 31.7 0.4-4.2 7.3 0.7 6.8 3.4-3.5-2.5-16-2.1-23.7-11.2-5.1-6-2.4-14.8-0.4-22.1zm-39.9-58.6c9.1-11.2 42.4 11.2 38.6 18.4-6.3 1.3-9.7 8.1 3.2 16.9-21.8-6.7-4.5-26.2-23.1-32.1-6-1.9-12.9-0.8-18.4 4.5-7.9-6.3-11.1-17.5-11.9-23.5-2.6-20.5 26.1-33.4 35.7-45.9l4.3 0.3q-0.2 0.2-0.4 0.4c-18.9 16.8-48.7 38-28 61zm26.5-66.1c2.6-7.4-1-15.8-5.8-21.8-2.6-3.2-5.7-7.2-8.3-11.8-0.3-1.2 0.8-2.9 1.4-4q1.7 3.6 4.4 7.1c-0.9-2.5 1.1-5.3 3.7-5.4 1.7 3.9 4.4-4.2 8.9 0.2-8.5 5.6-7 11.5-3.3 17.2-0.9-5.3 4.1-8.7 5.4-7.1-3.8 3.1 6 16-1.7 27.1zm-16.5-38.3c-5.3-12.7-2.7-26.1 15.2-38.3 0.5 2.1-0.6 7.8-4.6 4.8-8.9 10.3-11.5 20.5-8.2 30.5zm19.7 164.6c-21.5-1.1-8.2-27.8-19.2-21.1-4.7 2.9-0.3-5.9-3.4-12.4 4.8 2.8 7.6 13.3 15.4 8 4.6 2.8-6.7 8.2-2 15 3.1-8.1 9.6-6.9 18-8.8l2.9 2.9q-1.8 1-4.2 1.8c3.5 1.5 4.2 4.4 3.8 8l-5 1.8c2.2-12.1-12-9.6-11.3-3.1 0.7 5.9 13.6 4.8 18.6 0.2 0.8 4.3-6 8.1-13.6 7.7zm-36.1-74.6c0.7-1.8 1.6-3.5 2.7-5.1 6.8 3.5 13.7 2.7 19-0.8 16.2-10.9-5.9-24.7 13-37.4-9.8 12.1-4.7 17.7 1.8 17.1 5.6 5.9-20 36.8-31.9 28.6q-1.3 2.9-2.1 5.6c-1.3-2.6-2-5.2-2.5-8zm46.7 102c-0.3 10.4 5.1 19.5 16.5 26.9 3-4 5.7 1.1 5.8 3.3-20.6-6.7-26.9-18.7-25.3-32.4z"/>
		</g>
	</g>
</svg>